<svg width="20" height="14" viewBox="0 0 20 14" fill="none" xmlns="http://www.w3.org/2000/svg">
<path d="M20 1.70295V11.9207C20 12.389 19.8042 12.7899 19.4125 13.1234C19.0208 13.4569 18.55 13.6236 18 13.6236H2C1.45 13.6236 0.979167 13.4569 0.5875 13.1234C0.195833 12.7899 0 12.389 0 11.9207V1.70295C0 1.23464 0.195833 0.833738 0.5875 0.500243C0.979167 0.166748 1.45 0 2 0H18C18.55 0 19.0208 0.166748 19.4125 0.500243C19.8042 0.833738 20 1.23464 20 1.70295ZM2 3.40591H18V1.70295H2V3.40591ZM2 6.81181V11.9207H18V6.81181H2Z" fill="#9C3E75"/>
</svg>
