<svg width="22" height="14" viewBox="0 0 22 14" fill="none" xmlns="http://www.w3.org/2000/svg">
<path d="M5 13.6236C4.16667 13.6236 3.45833 13.3753 2.875 12.8786C2.29167 12.3819 2 11.7788 2 11.0692H0V1.70295C0 1.23464 0.195833 0.833738 0.5875 0.500243C0.979167 0.166748 1.45 0 2 0H16V3.40591H19L22 6.81181V11.0692H20C20 11.7788 19.7083 12.3819 19.125 12.8786C18.5417 13.3753 17.8333 13.6236 17 13.6236C16.1667 13.6236 15.4583 13.3753 14.875 12.8786C14.2917 12.3819 14 11.7788 14 11.0692H8C8 11.7788 7.70833 12.3819 7.125 12.8786C6.54167 13.3753 5.83333 13.6236 5 13.6236ZM5 11.9207C5.28333 11.9207 5.52083 11.8391 5.7125 11.6759C5.90417 11.5127 6 11.3104 6 11.0692C6 10.8279 5.90417 10.6257 5.7125 10.4625C5.52083 10.2993 5.28333 10.2177 5 10.2177C4.71667 10.2177 4.47917 10.2993 4.2875 10.4625C4.09583 10.6257 4 10.8279 4 11.0692C4 11.3104 4.09583 11.5127 4.2875 11.6759C4.47917 11.8391 4.71667 11.9207 5 11.9207ZM2 9.36624H2.8C3.08333 9.1108 3.40833 8.90503 3.775 8.74892C4.14167 8.59282 4.55 8.51477 5 8.51477C5.45 8.51477 5.85833 8.59282 6.225 8.74892C6.59167 8.90503 6.91667 9.1108 7.2 9.36624H14V1.70295H2V9.36624ZM17 11.9207C17.2833 11.9207 17.5208 11.8391 17.7125 11.6759C17.9042 11.5127 18 11.3104 18 11.0692C18 10.8279 17.9042 10.6257 17.7125 10.4625C17.5208 10.2993 17.2833 10.2177 17 10.2177C16.7167 10.2177 16.4792 10.2993 16.2875 10.4625C16.0958 10.6257 16 10.8279 16 11.0692C16 11.3104 16.0958 11.5127 16.2875 11.6759C16.4792 11.8391 16.7167 11.9207 17 11.9207ZM16 7.66329H20.25L18 5.10886H16V7.66329Z" fill="#9C3E75"/>
</svg>
