<svg width="21" height="23" viewBox="0 0 21 23" fill="none" xmlns="http://www.w3.org/2000/svg">
<g clip-path="url(#clip0_136_379)">
<path d="M7.13665 1.11406C6.92336 1.23086 6.80852 1.44649 6.80852 1.72949C6.80852 2.15625 7.07512 2.42578 7.49758 2.42578H7.71086V4.06094C7.71086 5.97461 7.73547 6.18125 8.01438 6.80566C8.3261 7.49746 8.8593 8.04551 9.49504 8.31953L9.78215 8.44082L8.70754 8.44531H7.63293L7.272 8.24766C6.58293 7.87031 5.87747 7.71309 5.24172 7.79844C5.05715 7.82539 4.89719 7.84336 4.89719 7.84336C4.89309 7.83887 5.04485 7.37168 5.23762 6.79668L5.58626 5.75899L5.79543 5.68262C6.24251 5.5209 6.66907 5.11211 6.87004 4.64941C7.39094 3.44102 6.76751 2.03496 5.58626 1.75644C5.26633 1.68457 4.41321 1.69356 4.122 1.77441C3.5929 1.92715 3.11712 2.32695 2.87922 2.82109C2.8095 2.96035 2.13274 4.70332 1.37395 6.69336C0.0286385 10.2107 -0.0082756 10.3186 0.00813065 10.5611C0.0204353 10.7678 0.0532478 10.8576 0.184498 11.0553C1.27551 12.7354 2.76028 13.6293 4.79055 13.8314C5.02434 13.8539 5.22122 13.8809 5.22532 13.8898C5.23352 13.8988 5.53293 14.9725 5.89797 16.2842L6.56243 18.665L6.57063 20.0891C6.58293 21.4457 6.58704 21.5176 6.66907 21.6344C6.71418 21.7018 6.80442 21.8006 6.86594 21.85C6.97669 21.9443 7.0054 21.9443 10.4999 21.9443C13.9945 21.9443 14.0232 21.9443 14.1339 21.85C14.1954 21.8006 14.2857 21.7018 14.3308 21.6344C14.4128 21.5176 14.4169 21.4457 14.4292 20.0891L14.4374 18.665L15.1019 16.2842C15.4669 14.9725 15.7704 13.8988 15.7745 13.8898C15.7786 13.8809 15.9837 13.8539 16.2298 13.8314C17.8007 13.6742 19.1255 13.0453 20.0935 11.9941C20.397 11.6617 20.8236 11.0822 20.9425 10.8352C21.0902 10.5252 21.0861 10.5207 19.6218 6.68438C18.863 4.69883 18.1945 2.97832 18.1411 2.85703C17.9114 2.36289 17.4029 1.92715 16.8779 1.77441C16.5866 1.69356 15.7335 1.68457 15.4136 1.75644C14.3718 2.00352 13.7361 3.14453 14.0109 4.29004C14.1626 4.93242 14.6302 5.47598 15.2044 5.68262L15.4136 5.75899L15.7622 6.79668C15.955 7.37168 16.1068 7.83887 16.1027 7.84336C16.1027 7.84336 15.9427 7.82539 15.7581 7.79844C15.1224 7.71309 14.4169 7.87031 13.7279 8.24766L13.3669 8.44531H12.2923L11.2177 8.44082L11.431 8.35996C12.3456 7.99609 13.0347 7.1291 13.2234 6.10039C13.3136 5.61973 13.3136 3.95312 13.2275 3.46797C13.0593 2.53809 12.481 1.74746 11.6689 1.3207C11.1685 1.05566 10.947 1.0332 9.01106 1.0332C7.44426 1.0332 7.2679 1.04219 7.13665 1.11406ZM11.1152 2.5875C11.4515 2.7627 11.7058 3.04121 11.8698 3.41406L11.997 3.70605V4.78418V5.8623L11.8781 6.14082C11.7345 6.48672 11.4146 6.83262 11.0865 6.99883C10.8896 7.09766 10.7911 7.11563 10.5204 7.11563C9.96672 7.11563 9.53196 6.85508 9.23665 6.34746C9.00286 5.94766 8.98235 5.76797 8.98235 4.00703V2.42129L9.91751 2.43477L10.8486 2.44824L11.1152 2.5875ZM5.45501 3.18496C5.74211 3.35117 5.85696 3.70605 5.72161 4.01602C5.61907 4.24961 5.45501 4.36191 5.14329 4.40234C4.85618 4.44277 4.71672 4.51914 4.61008 4.69434C4.47883 4.91895 3.14993 8.95742 3.14583 9.14609C3.14583 9.36172 3.24836 9.58184 3.41653 9.72109C3.50266 9.79297 3.5929 9.81543 3.76516 9.81543C3.96614 9.81543 4.03586 9.78848 4.28196 9.62676C4.79465 9.28086 5.27864 9.13262 5.74211 9.18203C6.15227 9.22246 6.44758 9.33926 7.0095 9.68066L7.2761 9.83789L10.5368 9.82891L13.8017 9.81543L14.0642 9.64473C15.0157 9.02481 15.7991 9.01582 16.7138 9.62227C17.1732 9.92324 17.5259 9.8918 17.7474 9.52793C17.9279 9.23145 17.9032 9.12813 17.1486 6.87305C16.7671 5.73652 16.4267 4.75723 16.3898 4.69434C16.2831 4.51914 16.1437 4.44277 15.8525 4.40234C15.4013 4.33945 15.1634 4.03848 15.2331 3.6252C15.2988 3.24336 15.5366 3.09961 16.0945 3.09961C16.64 3.09961 16.8615 3.20742 17.0214 3.54883C17.1239 3.76445 19.6464 10.3725 19.6464 10.4219C19.6464 10.4443 19.5029 10.624 19.3306 10.8307C18.4118 11.8953 17.3536 12.3625 15.5941 12.4793C15.0034 12.5197 14.8968 12.5646 14.7573 12.8297C14.7204 12.9016 14.3472 14.1863 13.9288 15.6912L13.1659 18.418V19.4961V20.5742H10.4999H7.83391V19.4961V18.418L7.07102 15.6912C6.65266 14.1863 6.27942 12.9016 6.24251 12.8297C6.09895 12.5602 6.00051 12.5197 5.36477 12.4793C3.68723 12.376 2.60032 11.8998 1.70208 10.8621C1.5093 10.642 1.35344 10.4443 1.35344 10.4219C1.35344 10.341 3.97434 3.53086 4.04817 3.41855C4.09329 3.35567 4.20813 3.25684 4.30657 3.19844C4.55266 3.06367 5.23352 3.05469 5.45501 3.18496Z" fill="#9C3E75"/>
<path d="M8.77697 15.2195C8.45705 15.3947 8.34221 15.8934 8.54318 16.2213C8.73186 16.5312 8.74006 16.5312 10.4996 16.5312C11.9229 16.5312 12.091 16.5223 12.2223 16.4504C12.6653 16.2078 12.6653 15.4621 12.2223 15.2195C12.091 15.1477 11.9229 15.1387 10.4996 15.1387C9.07639 15.1387 8.90822 15.1477 8.77697 15.2195Z" fill="#9C3E75"/>
<path d="M9.40834 17.8969C9.0433 18.0721 8.93666 18.6201 9.19506 18.9795C9.35502 19.2041 9.46986 19.2266 10.5076 19.2266C11.5781 19.2266 11.6642 19.2041 11.8406 18.9166C12.0415 18.5887 11.9267 18.09 11.6068 17.9148C11.4837 17.843 11.3361 17.834 10.4994 17.834C9.78568 17.8385 9.50267 17.852 9.40834 17.8969Z" fill="#9C3E75"/>
</g>
<defs>
<clipPath id="clip0_136_379">
<rect width="21" height="23" fill="white"/>
</clipPath>
</defs>
</svg>
