<svg width="22" height="22" viewBox="0 0 22 22" fill="none" xmlns="http://www.w3.org/2000/svg">
<g clip-path="url(#clip0_136_359)">
<path d="M7.60498 1.89062C7.0335 2.04101 6.60381 2.29023 6.16553 2.72851C5.71436 3.17539 5.49951 3.51914 5.34053 4.04336L5.22451 4.40859L4.85928 4.52461C4.33506 4.68359 3.99131 4.89844 3.54443 5.34961C2.87842 6.01562 2.62061 6.67305 2.62061 7.71719V8.28867L2.44014 8.33594C1.27998 8.63242 0.356152 9.57344 0.0682617 10.7508C-0.0305664 11.159 -0.0305664 12.6457 0.0682617 13.0539C0.343262 14.184 1.19834 15.0906 2.30264 15.4258L2.61201 15.516L2.6292 16.1906C2.64639 16.775 2.66357 16.9125 2.7624 17.209C2.92568 17.7074 3.15342 18.0641 3.56592 18.4766C3.99131 18.902 4.34795 19.1254 4.85928 19.2801L5.22451 19.3961L5.34053 19.7613C5.49521 20.2727 5.71865 20.6293 6.14404 21.0547C6.78857 21.6992 7.37725 21.957 8.29678 21.9914C8.74795 22.0043 8.89834 21.9957 9.19912 21.9184C9.75342 21.7809 10.2175 21.5273 10.6386 21.1277L10.9995 20.7883L11.3604 21.1277C11.7815 21.5273 12.2456 21.7809 12.7999 21.9184C13.1007 21.9957 13.2511 22.0043 13.7022 21.9914C14.6218 21.957 15.2104 21.6992 15.855 21.0547C16.2804 20.6293 16.5038 20.2727 16.6585 19.7613L16.7745 19.3961L17.1397 19.2801C17.6511 19.1254 18.0077 18.902 18.4331 18.4766C18.8456 18.0641 19.0733 17.7074 19.2366 17.209C19.3354 16.9125 19.3526 16.775 19.3698 16.1906L19.387 15.516L19.6964 15.4258C20.8007 15.0906 21.6558 14.184 21.9308 13.0539C22.0296 12.6457 22.0296 11.159 21.9308 10.7508C21.6429 9.57344 20.719 8.63242 19.5675 8.33594L19.387 8.29297L19.3698 7.61406C19.3526 7.02969 19.3354 6.89219 19.2366 6.5957C19.0733 6.09726 18.8456 5.74062 18.4331 5.32812C18.0077 4.90273 17.6511 4.67929 17.1397 4.52461L16.7745 4.40859L16.6585 4.04336C16.5038 3.53203 16.2804 3.17539 15.855 2.75C15.4425 2.3375 15.0901 2.11406 14.5874 1.94219C14.2694 1.83906 14.1921 1.83047 13.5562 1.83047C12.9202 1.83047 12.8429 1.83906 12.5507 1.94648C12.0651 2.12265 11.7042 2.34609 11.339 2.69843L10.9995 3.01641L10.6429 2.67695C10.2261 2.28164 9.75772 2.02383 9.22061 1.89062C8.76514 1.77461 8.05186 1.7789 7.60498 1.89062ZM9.20772 3.2957C9.82217 3.58789 10.2304 4.15937 10.3163 4.85976C10.3421 5.09179 10.355 6.85351 10.3464 9.77539L10.3335 14.3301L10.2347 14.5793C10.1101 14.8801 9.7749 15.2367 9.48701 15.3785C9.37529 15.4301 9.14326 15.4945 8.97139 15.516C8.59326 15.5633 8.4042 15.6535 8.29248 15.834C8.17647 16.0187 8.17647 16.3883 8.28818 16.5602C8.43428 16.7793 8.58037 16.8437 8.93701 16.8437C9.40537 16.8437 9.79639 16.7363 10.3249 16.4656C10.3679 16.4441 10.3593 18.6141 10.312 18.9879C10.2261 19.6453 9.80498 20.2254 9.20772 20.509C8.93272 20.6379 8.88975 20.6465 8.42139 20.6465C7.95303 20.6465 7.91006 20.6379 7.63506 20.509C7.25264 20.3285 6.87451 19.9504 6.70264 19.5809C6.53076 19.2199 6.49209 18.8676 6.48779 17.7461C6.48779 16.7277 6.4749 16.6762 6.2042 16.4957C6.03662 16.384 5.6499 16.384 5.48232 16.4957C5.22881 16.6633 5.19873 16.7621 5.19873 17.4152V18.0082L4.93662 17.8707C4.61865 17.6988 4.2792 17.3379 4.11592 16.9898C3.96123 16.659 3.91396 16.2766 3.90967 15.3914C3.90967 14.7984 3.89678 14.6652 3.83232 14.5578C3.71631 14.3602 3.54014 14.2785 3.11475 14.227C2.39287 14.141 1.82998 13.7543 1.52061 13.127C1.21123 12.5039 1.21123 11.3008 1.52061 10.6777C1.82998 10.0504 2.39287 9.66367 3.11475 9.57773C3.54014 9.52617 3.71631 9.44453 3.83662 9.24687C3.89678 9.13945 3.90967 9.00625 3.90967 8.41328C3.90967 8.03086 3.93115 7.5668 3.95264 7.39492C4.03428 6.77617 4.4124 6.21328 4.94092 5.93398L5.19873 5.79648V6.38945C5.19873 7.04258 5.22881 7.1414 5.48232 7.30898C5.6499 7.4207 6.03662 7.4207 6.2042 7.30898C6.4749 7.12851 6.48779 7.07695 6.48779 6.05859C6.49209 4.93711 6.53076 4.58476 6.70264 4.22383C6.84873 3.90586 7.23115 3.49765 7.51904 3.35156C7.86709 3.17109 8.03467 3.13672 8.48584 3.14961C8.86826 3.1582 8.9499 3.17539 9.20772 3.2957ZM14.364 3.2957C14.7464 3.47617 15.1245 3.8543 15.2964 4.22383C15.4683 4.58476 15.5069 4.93711 15.5112 6.05859C15.5112 7.07695 15.5241 7.12851 15.7948 7.30898C15.9624 7.4207 16.3491 7.4207 16.5167 7.30898C16.7702 7.1414 16.8003 7.04258 16.8003 6.38945V5.79648L17.0624 5.93398C17.3804 6.10586 17.7198 6.46679 17.8831 6.81484C18.0378 7.1457 18.0851 7.52812 18.0894 8.41328C18.0894 9.00625 18.1022 9.13945 18.1667 9.24687C18.2827 9.44453 18.4589 9.52617 18.8843 9.57773C19.6062 9.66367 20.169 10.0504 20.4784 10.6777C20.7878 11.3008 20.7878 12.5039 20.4784 13.127C20.169 13.7543 19.6062 14.141 18.8843 14.227C18.4589 14.2785 18.2827 14.3602 18.1667 14.5578C18.1022 14.6652 18.0894 14.7984 18.0894 15.3914C18.0851 16.2766 18.0378 16.659 17.8831 16.9898C17.7198 17.3379 17.3804 17.6988 17.0624 17.8707L16.8003 18.0082V17.4152C16.8003 16.7621 16.7702 16.6633 16.5167 16.4957C16.3491 16.384 15.9624 16.384 15.7948 16.4957C15.5241 16.6762 15.5112 16.7277 15.5112 17.7461C15.5069 18.8676 15.4683 19.2199 15.2964 19.5809C15.1245 19.9504 14.7464 20.3285 14.364 20.509C14.089 20.6379 14.046 20.6465 13.5776 20.6465C13.1093 20.6465 13.0663 20.6379 12.7913 20.509C12.1769 20.2168 11.7687 19.6453 11.6827 18.9449C11.6569 18.7129 11.644 16.9512 11.6526 14.0293L11.6655 9.47461L11.7644 9.22969C11.9749 8.70547 12.4347 8.36601 13.0233 8.28867C13.4058 8.2414 13.5948 8.15117 13.7065 7.9707C13.8226 7.78594 13.8226 7.4164 13.7108 7.24453C13.5647 7.02539 13.4187 6.96094 13.062 6.96094C12.5937 6.96094 12.2026 7.06836 11.6784 7.33906C11.6312 7.36055 11.6397 5.19062 11.687 4.8168C11.7472 4.37422 11.9233 4.00898 12.237 3.69961C12.6624 3.26992 13.0147 3.13242 13.6421 3.14961C14.0245 3.1582 14.1062 3.17539 14.364 3.2957Z" fill="#9C3E75"/>
</g>
<defs>
<clipPath id="clip0_136_359">
<rect width="22" height="22" fill="white"/>
</clipPath>
</defs>
</svg>
