<svg width="22" height="22" viewBox="0 0 22 22" fill="none" xmlns="http://www.w3.org/2000/svg">
<path d="M3.11523 0.0816402C2.96914 0.167578 2.86602 0.309374 2.82305 0.472656C2.80586 0.532812 2.87461 2.0668 2.96914 3.88867C3.12813 6.85781 3.14102 7.34336 3.11953 8.59375C3.10234 9.81836 3.07227 10.2824 2.93906 11.5027C2.90898 11.7605 2.90469 11.7734 2.79297 11.7734C2.6082 11.7734 2.31602 11.9539 2.23008 12.1172C2.15703 12.2547 2.14844 12.3836 2.14844 13.6984C2.14844 15.2453 2.15703 15.2926 2.38477 15.4902L2.48789 15.5762L2.44492 16.9512C2.37617 19.1125 2.45781 21.3254 2.6125 21.6562C2.65117 21.7379 2.75 21.8496 2.83164 21.9012L2.97773 22H10.9871H18.9965L19.1684 21.8367C19.3789 21.6434 19.4004 21.523 19.4691 20.3242C19.5164 19.5293 19.4949 15.8082 19.4434 15.675C19.4305 15.6449 19.4734 15.5848 19.5379 15.5418C19.6066 15.4945 19.6969 15.4086 19.7441 15.3484C19.8258 15.2367 19.8301 15.1551 19.843 13.7586C19.8516 12.4652 19.8473 12.2676 19.7828 12.1387C19.7012 11.9668 19.4949 11.8207 19.2758 11.7863C19.1039 11.7605 19.1082 11.7734 19.018 11.0645C18.7859 9.22969 18.7859 7.91484 19.0266 3.95742C19.1254 2.3418 19.207 0.885157 19.207 0.713282C19.207 0.373827 19.1383 0.223436 18.9234 0.0816402C18.8031 0.00429726 18.5668 0 11.0215 0C3.52344 0 3.23984 0.00429726 3.11523 0.0816402ZM17.832 1.49531C17.832 1.60703 17.7633 2.84023 17.6816 4.23242C17.6 5.62891 17.5227 7.10703 17.5055 7.51953C17.4668 8.58516 17.5699 10.3984 17.7289 11.4898C17.7633 11.7219 17.7848 11.9195 17.7805 11.9238C17.759 11.941 16.5129 12.0699 15.6836 12.1344C12.8906 12.3664 9.37148 12.375 6.55273 12.1559C5.98555 12.1129 4.23672 11.9453 4.22813 11.9324C4.22383 11.9281 4.23672 11.8164 4.2582 11.6875C4.36563 10.9871 4.43438 9.8957 4.45586 8.61523C4.47305 7.40351 4.46016 6.82773 4.34414 4.64062C4.27109 3.23555 4.19805 1.90351 4.18516 1.68437L4.15937 1.28906H10.9957H17.832V1.49531ZM4.64062 13.3203C7.05547 13.5652 8.48203 13.6383 11 13.6383C13.0668 13.6383 14.0637 13.5996 15.748 13.4664C16.5688 13.402 18.0598 13.2559 18.3605 13.2086L18.5195 13.1828V13.7844V14.3816L18.2531 14.4074C18.1027 14.4203 17.5098 14.4805 16.9297 14.5406C14.5148 14.7898 11.9453 14.8844 9.57773 14.8242C7.60547 14.7684 6.30352 14.6824 4.16797 14.4504L3.48047 14.3773V13.7801V13.1828L3.64375 13.2086C3.72969 13.2215 4.18086 13.273 4.64062 13.3203ZM6.72461 16.0273C9.40586 16.2164 12.9422 16.2078 15.4902 16.0059C15.8941 15.9758 16.225 15.9543 16.2336 15.9629C16.2594 15.9844 12.693 18.1328 12.4438 18.2402C11.9625 18.4508 11.5156 18.5324 10.8926 18.5109C9.98164 18.4809 9.84844 18.4207 7.63555 17.0887C6.61289 16.4785 5.7707 15.9672 5.75781 15.9543C5.74492 15.9414 5.82227 15.9457 5.92969 15.9586C6.03711 15.9715 6.39375 16.0016 6.72461 16.0273ZM6.30352 17.8578C7.69141 18.6957 8.92891 19.409 9.12656 19.4906C9.31563 19.568 9.66367 19.6797 9.89141 19.7313L10.3125 19.8301V20.2684V20.7109H7.06836H3.82852L3.80703 20.5691C3.73398 20.1008 3.74258 16.3711 3.81563 16.3711C3.82422 16.3711 4.9457 17.0414 6.30352 17.8578ZM18.1715 18.3949C18.1715 19.0223 18.1629 19.8 18.1457 20.1223L18.1199 20.7109H14.8801H11.6445V20.2641V19.8215L11.8895 19.7914C12.2289 19.7527 12.9766 19.4949 13.3418 19.293C13.5094 19.2027 14.648 18.5195 15.877 17.7719L18.1113 16.4141L18.1371 16.8309C18.1543 17.0629 18.1672 17.7676 18.1715 18.3949Z" fill="#9C3E75"/>
<path d="M10.4629 3.48047C9.67227 3.60078 9.02344 3.94024 8.40898 4.55899L7.98789 4.98438H7.73437C7.52812 4.98438 7.45937 5.00156 7.34766 5.0961C7.17148 5.24649 7.08984 5.41406 7.08984 5.62891C7.08984 5.83086 7.13281 5.9211 7.45078 6.41953C7.80312 6.96094 7.95352 7.00391 8.75273 6.80195C9.09219 6.72031 9.24258 6.65586 9.35 6.56133C9.60781 6.33789 9.63789 5.92539 9.41875 5.66328L9.30703 5.53008L9.50898 5.34531C9.78398 5.10039 10.1707 4.91133 10.5918 4.82539C11.2449 4.69219 11.9152 4.88555 12.4953 5.3711C12.7875 5.61172 12.9766 5.68047 13.2129 5.62891C13.6555 5.53008 13.8574 5.13047 13.6727 4.71797C13.4965 4.31406 12.6199 3.75117 11.8852 3.56641C11.4812 3.46328 10.8281 3.42461 10.4629 3.48047Z" fill="#9C3E75"/>
<path d="M10.7422 6.69453C10.4758 6.81914 10.3555 7.0082 10.3555 7.30039C10.3555 7.7043 10.6004 7.95781 11 7.95781C11.4039 7.95781 11.6445 7.70859 11.6445 7.2875C11.6445 7.06406 11.6316 7.02969 11.477 6.86641C11.3266 6.70313 11.2922 6.68594 11.0602 6.67305C10.9227 6.66875 10.7766 6.67734 10.7422 6.69453Z" fill="#9C3E75"/>
<path d="M13.2137 7.82031C12.7196 7.95352 12.5477 8.07813 12.4617 8.37031C12.3973 8.58516 12.4488 8.81719 12.5949 8.97617L12.6852 9.075L12.5262 9.24258C12.3113 9.45742 11.8645 9.68946 11.4906 9.77969C10.7473 9.95586 9.81057 9.65078 9.33791 9.0836C9.14025 8.85156 8.91682 8.74844 8.6633 8.77422C8.20354 8.82578 7.94572 9.30703 8.14768 9.73672C8.23791 9.92149 8.71057 10.3727 9.06721 10.6047C9.75471 11.0559 10.7258 11.2578 11.5594 11.1289C12.4145 10.9914 13.2953 10.493 13.7938 9.86563C13.9871 9.625 13.9871 9.625 14.1676 9.65078C14.4254 9.68946 14.6918 9.55196 14.8207 9.31992C14.9711 9.05352 14.9324 8.81289 14.6789 8.40469C14.202 7.63985 14.0688 7.58828 13.2137 7.82031Z" fill="#9C3E75"/>
</svg>
