<svg width="22" height="23" viewBox="0 0 22 23" fill="none" xmlns="http://www.w3.org/2000/svg">
<path d="M9.86133 0.0673828C8.82578 0.242579 7.82461 0.664845 6.89648 1.31621C6.3293 1.71602 5.42695 2.67734 5.03164 3.29277C4.36992 4.34395 3.94023 5.5793 3.84141 6.74727L3.81133 7.08867L3.63516 7.17402C3.37734 7.29531 2.87031 7.83438 2.71563 8.15332C2.50938 8.58457 2.44922 8.86309 2.44922 9.36172C2.44922 9.71211 2.475 9.88281 2.54805 10.1119C2.74141 10.7049 3.09375 11.1676 3.58789 11.4775C4.00469 11.7381 4.30977 11.8145 4.91992 11.8145H5.44844L5.61172 12.1154C5.69766 12.2861 5.84805 12.5377 5.94258 12.6814C6.03711 12.8207 6.10586 12.9465 6.09727 12.951C6.08867 12.96 5.95547 13.0229 5.80078 13.0947C5.07461 13.4227 4.50312 13.8404 3.86719 14.5098C3.32578 15.0713 2.96484 15.5924 2.64688 16.2482L2.44922 16.666V19.6174C2.44922 22.4385 2.45352 22.5777 2.53086 22.7035C2.57383 22.7709 2.66836 22.8697 2.73281 22.9146C2.85313 22.9955 3.09375 23 11 23C18.9062 23 19.1469 22.9955 19.2672 22.9146C19.3316 22.8697 19.4262 22.7709 19.4691 22.7035C19.5465 22.5777 19.5508 22.4385 19.5508 19.6174V16.666L19.3531 16.2482C19.0352 15.5924 18.6742 15.0713 18.1328 14.5098C17.4969 13.8404 16.8438 13.3643 16.1562 13.0678C16.0273 13.0139 15.9113 12.96 15.9027 12.9555C15.8984 12.9465 15.9973 12.7758 16.1262 12.5691C16.2551 12.3625 16.4012 12.1109 16.4527 12.0076L16.543 11.8145H17.0758C17.6902 11.8145 17.9953 11.7381 18.4121 11.4775C18.9062 11.1676 19.2586 10.7049 19.452 10.1119C19.5723 9.73906 19.5895 9.03828 19.482 8.66543C19.3102 8.06348 18.9191 7.51992 18.4422 7.23242L18.1844 7.0752L18.1586 6.73828C18.0598 5.5748 17.6301 4.33945 16.9684 3.29277C16.5387 2.62344 15.6664 1.71152 15.0219 1.2623C14.2355 0.714258 13.3805 0.341406 12.4523 0.125782C11.9152 0.00449181 10.4371 -0.0269527 9.86133 0.0673828ZM11.9668 1.46445C14.4031 1.86426 16.4141 3.99356 16.7922 6.57656L16.8309 6.8416L16.4613 6.81465C15.1766 6.72481 13.7457 6.08242 12.7832 5.15703C12.3535 4.74375 12.3063 4.7168 12.0312 4.7168C11.8035 4.7168 11.7605 4.73926 10.7852 5.35019C9.625 6.07793 9.27695 6.27109 8.76562 6.45977C7.94492 6.76074 7.13711 6.87305 5.80938 6.87305H5.15625L5.17344 6.76973C5.18633 6.71582 5.21641 6.52715 5.24648 6.35645C5.56445 4.39336 7.03398 2.54258 8.86445 1.80137C9.87852 1.39258 10.8668 1.28477 11.9668 1.46445ZM12.2805 6.5541C13.2344 7.31328 14.3301 7.84336 15.3914 8.06348L15.7652 8.14434L15.7953 8.38691C15.8512 8.87207 15.7867 9.82441 15.6664 10.2826C15.2324 11.9133 14.0379 13.2385 12.5297 13.7686C11.5457 14.1145 10.4586 14.11 9.46172 13.7641C7.8332 13.198 6.57852 11.6842 6.24766 9.88731C6.1875 9.55488 6.16172 8.43633 6.20898 8.30156C6.23047 8.24316 6.36797 8.22969 6.95234 8.20723C8.47773 8.1623 9.54766 7.78496 11.2148 6.72031C11.5801 6.48672 11.8938 6.29355 11.9152 6.29355C11.9324 6.28906 12.0957 6.40586 12.2805 6.5541ZM4.93711 10.1748C5.01016 10.4713 5.01016 10.4713 4.76094 10.4398C4.16367 10.359 3.78125 9.93223 3.78125 9.34375C3.78125 8.78672 4.14648 8.34649 4.66211 8.27012L4.83398 8.24316L4.86406 9.11914C4.87695 9.5998 4.91133 10.076 4.93711 10.1748ZM17.6816 8.38691C18.0297 8.57559 18.2188 8.91699 18.2188 9.35723C18.2188 9.73906 18.0383 10.067 17.716 10.2691C17.5227 10.3904 17.0801 10.5027 17.0285 10.4488C17.0199 10.4398 17.0414 10.2557 17.0801 10.04C17.1188 9.79746 17.1445 9.3707 17.1445 8.93945V8.23418L17.3293 8.26562C17.4281 8.28359 17.5871 8.3375 17.6816 8.38691ZM7.55391 14.3256C8.05664 14.6805 8.46484 14.8871 9.06211 15.0938C9.82266 15.3588 10.2996 15.4262 11.2063 15.3947C11.6617 15.3813 12.0871 15.3408 12.2676 15.2959C13.0668 15.1072 13.8016 14.7793 14.4418 14.3301L14.8328 14.0516L15.2281 14.1953C15.9285 14.4469 16.5473 14.8467 17.1102 15.3992C17.4023 15.6867 17.8578 16.2797 17.9824 16.5312L18.0426 16.6525L17.2605 17.2006L16.4785 17.7441L16.457 17.3488C16.4355 16.9266 16.384 16.8098 16.1691 16.6615C16.0059 16.5447 15.6191 16.5492 15.4516 16.6615C15.3871 16.7064 15.2926 16.8053 15.2496 16.8727C15.1723 16.9939 15.168 17.1242 15.168 19.3254V21.6523H11H6.83203V19.3254C6.83203 17.1242 6.82773 16.9939 6.75039 16.8727C6.70742 16.8053 6.61289 16.7064 6.54844 16.6615C6.38086 16.5492 5.99414 16.5447 5.83086 16.6615C5.61602 16.8098 5.56445 16.9266 5.54297 17.3488L5.52148 17.7441L4.73945 17.2006L3.95312 16.6525L4.04766 16.4908C4.48164 15.7271 5.225 14.9949 6.02422 14.5322C6.26914 14.393 7.03828 14.0695 7.1457 14.0605C7.16289 14.0605 7.34336 14.1773 7.55391 14.3256ZM4.76523 18.8896L5.54297 19.4287V20.5383V21.6523H4.64062H3.73828V19.9184V18.1844L3.86289 18.2697C3.93164 18.3146 4.33555 18.5932 4.76523 18.8896ZM18.2617 19.9229V21.6523H17.3594H16.457V20.5383L16.4613 19.4287L17.3508 18.8133C17.8406 18.4719 18.2445 18.1934 18.2531 18.1934C18.2574 18.1934 18.2617 18.9705 18.2617 19.9229Z" fill="#9C3E75"/>
<path d="M9.60781 10.9115C9.41016 11.0463 9.32422 11.226 9.32422 11.491C9.32422 11.7965 9.41445 11.9582 9.67227 12.1334C10.1234 12.4344 10.798 12.5826 11.3223 12.4973C11.9152 12.3984 12.448 12.1379 12.6027 11.8684C12.7059 11.6842 12.7016 11.2934 12.5941 11.1227C12.3793 10.7857 11.9969 10.7273 11.55 10.9699C11.3266 11.0957 11.2363 11.1182 11 11.1182C10.7637 11.1182 10.6734 11.0957 10.45 10.9699C10.1277 10.7992 9.80977 10.7723 9.60781 10.9115Z" fill="#9C3E75"/>
</svg>
