<svg width="21" height="22" viewBox="0 0 21 22" fill="none" xmlns="http://www.w3.org/2000/svg">
<g clip-path="url(#clip0_136_384)">
<path d="M5.80381 2.01953C4.84404 2.12695 3.9335 2.48359 3.1583 3.05507C2.73584 3.36445 2.07549 4.07343 1.79658 4.51172C1.14033 5.55586 0.861426 6.53125 0.861426 7.79453C0.861426 8.69687 1.00498 9.38867 1.37412 10.2781C1.40283 10.3512 1.36182 10.3555 0.89834 10.3555C0.340527 10.3555 0.233887 10.3941 0.0780274 10.6391C-0.0286133 10.8066 -0.0286133 11.1934 0.0780274 11.3609C0.250293 11.6316 0.29541 11.6445 1.3126 11.6445H2.23545L6.19346 15.7867C10.5493 20.3457 10.2745 20.0879 10.6765 19.9805C10.8323 19.9375 11.2589 19.5035 14.8067 15.7867L18.7647 11.6445H19.6876C20.5243 11.6445 20.6228 11.6359 20.7294 11.5629C20.9181 11.4297 21.0001 11.2664 21.0001 11C21.0001 10.7336 20.9181 10.5703 20.7294 10.4371C20.6269 10.3684 20.5325 10.3555 20.1019 10.3555C19.6384 10.3555 19.5974 10.3512 19.6261 10.2781C19.9952 9.38867 20.1388 8.69687 20.1388 7.79453C20.1388 7.03398 20.0731 6.56992 19.8722 5.94258C19.5933 5.06601 19.1831 4.36562 18.5597 3.7125C18.0675 3.19258 17.686 2.90468 17.0831 2.59531C16.2792 2.17851 15.5737 2.00664 14.6427 2.00664C13.7116 2.00664 13.0062 2.17851 12.2022 2.59531C11.6567 2.87461 11.2835 3.14531 10.8364 3.58789L10.5001 3.91875L10.1638 3.58789C9.37217 2.80586 8.45752 2.31172 7.42393 2.10547C6.94404 2.00664 6.23857 1.97226 5.80381 2.01953ZM6.80869 3.35156C7.90791 3.49336 8.62568 3.88867 9.62236 4.90273C10.2417 5.53437 10.3278 5.58593 10.6519 5.52148C10.7749 5.5 10.9103 5.38398 11.3573 4.92422C11.6649 4.61484 12.0382 4.26679 12.1858 4.15508C14.3269 2.56523 17.2841 3.35156 18.4366 5.82226C18.7853 6.56133 18.8468 6.8707 18.8427 7.79883C18.8427 8.5164 18.8345 8.60234 18.7319 8.95898C18.6007 9.40586 18.3956 9.88281 18.211 10.1621L18.0839 10.3555L16.5007 10.3469L14.9175 10.334L14.1956 9.13945C13.7362 8.3789 13.4286 7.91484 13.3507 7.86328C13.1825 7.74726 12.8339 7.74726 12.6575 7.86328C12.555 7.92773 12.3048 8.35312 11.505 9.81406C10.939 10.8453 10.4673 11.6875 10.455 11.6875C10.4386 11.6875 10.1843 11.1805 9.88486 10.5574C8.08428 6.81914 7.78897 6.23476 7.64951 6.14453C7.46904 6.02851 7.13272 6.02851 6.94814 6.14883C6.77998 6.25625 6.77588 6.26484 5.86123 8.55937L5.14756 10.3555H4.03193H2.91631L2.78916 10.1621C2.60459 9.88281 2.39951 9.40586 2.26826 8.95898C2.16572 8.60234 2.15752 8.5164 2.15752 7.79883C2.15342 6.8707 2.21494 6.56133 2.56357 5.82226C3.09678 4.68359 4.04424 3.8457 5.19268 3.50195C5.79561 3.32578 6.25088 3.28281 6.80869 3.35156ZM7.83818 9.28984C8.08838 9.81836 8.6626 11.0086 9.11377 11.9324C10.0284 13.8145 10.012 13.793 10.4181 13.793C10.8077 13.793 10.7872 13.823 11.9562 11.6918C12.5386 10.6262 13.0267 9.76679 13.0431 9.77539C13.0595 9.78828 13.3056 10.1793 13.5886 10.6434C13.9331 11.2148 14.1423 11.5199 14.2243 11.5672C14.3351 11.6359 14.4827 11.6445 15.6558 11.6445H16.9601L13.728 15.0262L10.5001 18.4121L7.27217 15.0262L4.04014 11.6445H4.92197C5.70947 11.6445 5.81611 11.6359 5.91865 11.5629C5.98018 11.5199 6.05811 11.4469 6.09092 11.3996C6.11963 11.3566 6.39033 10.7078 6.68975 9.96445C6.98506 9.22539 7.25576 8.55078 7.28857 8.47343C7.31729 8.40039 7.3501 8.33593 7.3624 8.33593C7.37471 8.33593 7.58799 8.76562 7.83818 9.28984Z" fill="#9C3E75"/>
</g>
<defs>
<clipPath id="clip0_136_384">
<rect width="21" height="22" fill="white"/>
</clipPath>
</defs>
</svg>
