<svg width="21" height="22" viewBox="0 0 21 22" fill="none" xmlns="http://www.w3.org/2000/svg">
<g clip-path="url(#clip0_136_362)">
<path d="M1.50127 0.0816441C1.27568 0.240628 1.23057 0.365238 1.23057 0.846488V1.28907H0.812207C0.34873 1.28907 0.229785 1.33633 0.0780273 1.57266C-0.0286133 1.74024 -0.0286133 2.12696 0.0780273 2.29453C0.229785 2.53086 0.34873 2.57813 0.812207 2.57813H1.23057V3.01641C1.23057 3.50196 1.27568 3.62657 1.50127 3.78555C1.66123 3.89727 2.01807 3.89727 2.19033 3.78555C2.40361 3.64375 2.46514 3.48047 2.48975 3.00352L2.51436 2.57813H2.90811C3.34287 2.57813 3.46592 2.52657 3.61357 2.29453C3.72021 2.12696 3.72021 1.74024 3.61357 1.57266C3.46592 1.34063 3.34287 1.28907 2.90811 1.28907H2.51436L2.48975 0.859378C2.46514 0.382425 2.39541 0.21055 2.18213 0.0730503C2.01396 -0.0300748 1.65713 -0.0257778 1.50127 0.0816441Z" fill="#9C3E75"/>
<path d="M9.4541 0.0601578C7.32539 0.429689 5.5084 1.83906 4.51582 3.88867C4.1959 4.55899 4.01953 5.0832 3.84727 5.88672C3.76113 6.28633 3.75703 6.38086 3.74473 10.9184L3.72832 15.5461L3.39199 15.6578C2.90391 15.8168 2.57578 16.0359 2.15332 16.4785C1.85801 16.7879 1.74727 16.9383 1.60781 17.2305C1.28789 17.9008 1.27148 18.0426 1.27148 19.9332C1.27148 21.4844 1.27559 21.6004 1.34941 21.7164C1.39043 21.7809 1.48066 21.8754 1.54219 21.9184C1.65703 21.9957 1.91133 22 10.5 22C19.0887 22 19.343 21.9957 19.4578 21.9184C19.5193 21.8754 19.6096 21.7809 19.6506 21.7164C19.7244 21.6004 19.7285 21.4844 19.7285 19.9332C19.7285 18.0426 19.7121 17.9008 19.3922 17.2305C19.2527 16.9383 19.142 16.7879 18.8467 16.4785C18.4242 16.0359 18.0961 15.8168 17.608 15.6578L17.2717 15.5461L17.2553 10.7895L17.243 6.03711L17.1322 5.56446C16.9641 4.85547 16.8738 4.58906 16.5908 3.97461C15.668 1.98516 13.9781 0.597267 11.8904 0.124611C11.3941 0.00859642 9.95859 -0.0257797 9.4541 0.0601578ZM11.5541 1.41797C12.5959 1.63711 13.5352 2.15703 14.3104 2.94336C14.9748 3.61797 15.4383 4.38711 15.7254 5.28516C16.0125 6.17891 15.9961 5.73203 15.9961 13.6039V20.7109H15.4014H14.8066V15.7352C14.8066 10.9355 14.8025 10.7594 14.7287 10.6391C14.6057 10.4414 14.4416 10.3555 14.1996 10.3555C13.9371 10.3555 13.7689 10.4457 13.6459 10.6563L13.5557 10.8066L13.5434 15.6707C13.5393 18.3477 13.5187 20.5391 13.5023 20.5391C13.4367 20.5391 13.0389 20.2297 12.8789 20.0535C12.6369 19.7914 12.4359 19.3402 12.3867 18.9492C12.3662 18.7602 12.3457 16.4141 12.3457 13.2559C12.3457 7.18008 12.3662 7.61836 12.0094 6.875C11.8699 6.57852 11.7592 6.43242 11.4434 6.10156C11.1275 5.76641 10.9881 5.65469 10.7051 5.50859C10.0652 5.17344 9.92988 5.15625 8.1457 5.15625C6.68555 5.15625 6.5748 5.16055 6.46406 5.23789C6.40254 5.28086 6.3123 5.37539 6.27129 5.43985C6.19746 5.56016 6.19336 5.69766 6.19336 8.51211C6.19336 11.8551 6.18926 11.782 6.52969 12.5039C6.66914 12.7961 6.77988 12.9465 7.07519 13.2559C7.48125 13.6813 7.82168 13.9133 8.25644 14.0594C8.4082 14.1109 8.53125 14.1711 8.53125 14.1883C8.53125 14.2914 8.30566 14.6695 8.12109 14.8844C7.84629 15.198 7.44434 15.4086 7.01367 15.4688C6.75117 15.5031 5.01211 15.5332 4.9998 15.4988C4.9998 15.4945 4.9875 13.75 4.9793 11.6188C4.95879 7.67422 4.9793 6.77617 5.10645 6.12305C5.34434 4.91133 5.92266 3.80703 6.77988 2.93477C7.53457 2.16992 8.33848 1.69727 9.30645 1.45234C9.92168 1.30195 10.9184 1.28477 11.5541 1.41797ZM9.47051 6.48828C10.3154 6.6043 10.9635 7.2832 11.0742 8.16836C11.0947 8.34024 11.1152 8.90742 11.1152 9.42735V10.3684L10.7297 10.3469C10.1637 10.3168 9.9668 10.1621 9.90527 9.68945C9.84785 9.26836 9.63867 9.06641 9.26953 9.06641C9.01113 9.06641 8.82246 9.17383 8.71582 9.38008C8.59687 9.61641 8.64199 10.1664 8.81836 10.5488C8.99883 10.9441 9.32285 11.2836 9.7002 11.477C9.975 11.6145 10.0078 11.623 10.5533 11.6359L11.1152 11.6531V15.4387C11.1152 18.7816 11.1234 19.2543 11.1809 19.5035C11.2547 19.8086 11.468 20.3371 11.6033 20.5348C11.6525 20.6035 11.6895 20.6723 11.6895 20.6852C11.6895 20.698 10.4549 20.7109 8.94141 20.7109H6.19336V19.6023C6.19336 18.3863 6.18516 18.3563 5.92266 18.1715C5.7627 18.0598 5.39355 18.0598 5.23359 18.1715C4.97109 18.3563 4.96289 18.3863 4.96289 19.6023V20.7109H3.74883H2.53887L2.55117 19.4777L2.56348 18.2402L2.69473 17.948C2.86699 17.5656 3.22793 17.1875 3.58066 17.0156C3.9498 16.8309 4.25742 16.8051 5.84883 16.8008C7.44844 16.8008 7.6166 16.775 8.24414 16.4484C8.52715 16.3023 8.6666 16.1906 8.98242 15.8555C9.30234 15.5246 9.40898 15.3785 9.54844 15.082C9.76582 14.6223 9.88477 14.1367 9.88477 13.6941C9.88477 13.1313 9.73711 12.9723 9.13008 12.8949C8.64199 12.8348 8.31797 12.6715 7.99395 12.3363C7.69043 12.0184 7.52227 11.6531 7.46484 11.2105C7.44434 11.0387 7.42383 9.89141 7.42383 8.6668V6.44531H8.29746C8.77324 6.44531 9.30645 6.4668 9.47051 6.48828ZM17.973 17.441C18.0879 17.5742 18.2396 17.8063 18.3094 17.9609L18.4365 18.2402L18.4488 19.4734L18.4611 20.7109H17.8664H17.2676V18.816V16.9254L17.5178 17.0629C17.6572 17.1402 17.8541 17.3078 17.973 17.441Z" fill="#9C3E75"/>
<path d="M18.8098 0.0816436C18.5924 0.232034 18.535 0.386722 18.5104 0.859378L18.4857 1.28907H18.092C17.7762 1.28907 17.6736 1.30625 17.5793 1.37071C17.3906 1.50391 17.3086 1.66719 17.3086 1.9336C17.3086 2.2 17.3906 2.36328 17.5793 2.49649C17.6736 2.56094 17.7762 2.57813 18.092 2.57813H18.4857L18.5104 3.00352C18.535 3.48047 18.5965 3.64375 18.8098 3.78555C18.982 3.89727 19.3389 3.89727 19.4988 3.78555C19.7244 3.62657 19.7695 3.50196 19.7695 3.01641V2.57813H20.192C20.6514 2.57813 20.7703 2.53086 20.9221 2.29453C21.0287 2.12696 21.0287 1.74024 20.9221 1.57266C20.7703 1.33633 20.6514 1.28907 20.192 1.28907H19.7695V0.846487C19.7695 0.365237 19.7244 0.240628 19.4988 0.0816436C19.3348 -0.0300751 18.9697 -0.0300751 18.8098 0.0816436Z" fill="#9C3E75"/>
<path d="M1.54219 6.52695C1.35352 6.66016 1.27148 6.82344 1.27148 7.08984C1.27148 7.49805 1.49707 7.73438 1.88672 7.73438C2.27637 7.73438 2.50195 7.49805 2.50195 7.08984C2.50195 6.68164 2.27637 6.44531 1.88672 6.44531C1.73496 6.44531 1.62422 6.47109 1.54219 6.52695Z" fill="#9C3E75"/>
<path d="M18.7687 6.52696C18.5801 6.66016 18.498 6.82344 18.498 7.08985C18.498 7.35625 18.5801 7.51953 18.7687 7.65274C18.9287 7.76446 19.2979 7.76446 19.4578 7.65274C19.6465 7.51953 19.7285 7.35625 19.7285 7.08985C19.7285 6.93086 19.7039 6.81485 19.6506 6.72891C19.5234 6.53125 19.3676 6.44532 19.1133 6.44532C18.9615 6.44532 18.8508 6.4711 18.7687 6.52696Z" fill="#9C3E75"/>
</g>
<defs>
<clipPath id="clip0_136_362">
<rect width="21" height="22" fill="white"/>
</clipPath>
</defs>
</svg>
