<svg width="214" height="76" viewBox="0 0 214 76" fill="none" xmlns="http://www.w3.org/2000/svg">
<g clip-path="url(#clip0_1_3)">
<path fill-rule="evenodd" clip-rule="evenodd" d="M39.751 9.82639C51.2854 10.6655 60.9284 18.3409 64.6898 28.836C63.901 28.2993 63.0148 27.8861 62.0479 27.622C60.9878 27.3324 59.9191 27.2515 58.8802 27.3494C55.8991 21.6887 50.7383 17.3655 44.5217 15.5041L44.7549 14.2519L42.3844 13.5874C41.7483 13.4085 41.1546 13.4937 40.5652 13.7109C40.4677 13.745 40.3701 13.7833 40.2768 13.8217L40.0775 12.6418C40.1199 11.9348 40.0521 11.1681 39.8782 10.329C39.8401 10.1544 39.7977 9.98824 39.751 9.82639ZM44.1146 66.7359C42.0367 67.2172 39.874 67.4685 37.6519 67.4685C22.6446 67.4685 10.3258 55.9128 9.03662 41.1754C10.6184 41.6269 12.3655 41.8143 13.8497 41.7419C15.3763 53.5787 25.4518 62.7235 37.6519 62.7235C39.2973 62.7235 40.9087 62.5574 42.4607 62.238C42.5625 63.8778 43.152 65.441 44.1146 66.7359Z" fill="#AD4582"/>
<path fill-rule="evenodd" clip-rule="evenodd" d="M22.7125 8.56134C22.4029 10.9594 22.4665 12.4842 23.2637 14.5287C23.603 15.3934 25.2398 18.6305 24.7691 19.4994C23.5987 20.1468 22.1315 18.0001 21.8304 17.3782C20.7024 15.0356 21.5378 12.1222 20.0112 9.16617C19.5702 8.31004 18.2768 6.75111 17.6323 6.41036L17.0979 10.461C16.1947 9.61341 15.6901 5.42644 10.6481 5.28588C8.85005 5.23477 6.91212 5.2944 5.16925 4.95791C3.04472 4.54901 1.70895 3.60343 0.767542 3.4075C1.30185 4.73216 2.29414 5.86516 2.84542 7.50502C4.53316 12.5183 2.80725 16.6882 7.02661 18.4814C7.60757 18.7285 8.92214 19.0096 9.35892 19.295L5.27102 19.5974C5.37703 20.0148 6.05128 20.5174 6.44141 20.8113C10.012 23.5032 14.1762 21.9187 16.8817 23.0901C17.9503 23.5501 19.0444 24.419 19.0359 25.7096C18.0012 25.914 18.1708 26.0077 16.9877 25.6627C10.8304 23.8781 10.4742 23.4053 3.96493 25.9353C2.81573 26.5146 1.00077 27.0854 0 27.852C0.110255 28.6826 3.1465 33.8705 6.48382 34.7395C7.90017 35.11 9.17234 34.7948 10.5717 34.8332C10.2791 36.7243 9.06208 37.1545 7.62029 37.6145C9.05784 38.6709 12.111 39.2416 14.278 38.9988C17.3524 38.6496 19.5999 37.1929 21.2071 34.6032C20.202 32.2648 21.029 29.6282 22.8397 28.0139C21.2791 29.2236 19.2437 30.5355 15.4993 31.349C13.5952 31.7622 10.6735 31.9964 8.77797 31.711C13.4426 31.4214 17.3227 30.5056 20.9908 27.9671C21.7159 27.4644 23.6963 25.995 23.9761 25.1814C23.4376 24.8705 19.7313 21.2117 19.2522 20.7432C15.8597 17.4081 12.4291 14.1113 9.0324 10.7677C13.0185 14.1028 13.3408 14.3328 17.7383 18.081C18.8069 18.9883 24.3705 23.861 25.0448 24.1762C26.0795 21.923 27.2244 21.2713 28.1701 17.029C29.1708 12.5439 28.3736 11.0999 28.3354 7.73502C29.2132 9.1108 29.3659 14.993 29.086 17.0034C28.4754 21.3395 26.8258 22.8302 26.0498 25.0366L26.2279 25.0409C27.6951 22.0976 31.4777 20.5813 34.4673 22.5023C34.6793 22.6386 34.8744 22.7791 35.061 22.9282C37.6604 21.4161 41.1843 18.8307 41.6805 16.1771C41.6042 16.1558 38.8902 17.3186 38.182 17.4464L37.8216 15.3125L35.2772 18.3409L35.0779 17.0119C34.1577 17.7957 33.2757 20.0318 32.3131 20.3385C31.3378 19.6187 31.7788 18.064 32.5675 17.3484C32.9492 16.9992 34.7641 15.8364 35.1712 15.6745C37.0413 14.3796 37.7665 13.2722 37.2661 10.8784C36.9989 9.58785 35.6589 7.43261 35.608 7.17705C35.5953 7.12167 35.5529 7.12167 35.5232 7.09612C35.2603 8.69338 34.285 10.1373 33.0213 10.2821C32.9958 8.5869 33.2079 7.41131 32.6142 5.90775C31.9357 4.24234 30.4727 3.19453 29.0903 2.17228L26.4823 0.655944C26.9912 0.9541 25.2865 0 25.2865 0C24.1839 3.09231 23.3443 5.31996 22.7125 8.56134Z" fill="#72941D"/>
<path fill-rule="evenodd" clip-rule="evenodd" d="M45.7302 55.193C46.1839 55.5465 46.714 55.8191 47.3035 55.9809C49.6782 56.6284 52.125 55.2228 52.7695 52.8375C52.8543 52.5223 52.9052 52.2071 52.9222 51.8919C53.4183 52.2327 53.9823 52.4968 54.593 52.6629C54.9619 52.7609 55.3308 52.8247 55.6955 52.846C54.9322 53.3742 54.347 54.1664 54.0841 55.1333C53.8424 56.0235 53.9145 56.9265 54.2325 57.7188C53.6473 57.2076 52.9392 56.8158 52.1419 56.5986C49.3177 55.8276 46.4087 57.5015 45.6411 60.3383C44.8736 63.175 46.5401 66.097 49.3644 66.8679C51.7772 67.5238 54.2495 66.3994 55.3987 64.291C55.0298 66.9105 56.6497 69.4533 59.2576 70.1647C62.0818 70.9356 64.9908 69.2617 65.7584 66.4249C66.5259 63.5882 64.8594 60.6662 62.0352 59.8953C61.3524 59.7079 60.6612 59.6653 59.9997 59.7462C60.9072 59.2308 61.6196 58.3619 61.9164 57.2673C62.5059 55.095 61.2252 52.8546 59.0625 52.2625C58.9396 52.2284 58.8123 52.2029 58.6894 52.1773C59.9785 51.4788 60.9877 50.2691 61.4033 48.74C61.539 48.2331 61.6026 47.722 61.5984 47.2237C62.1666 48.6676 63.354 49.8474 64.9315 50.3458C63.6339 51.0017 62.6076 52.1858 62.2005 53.7064C61.433 56.5432 63.0995 59.4651 65.9238 60.2361C68.748 61.007 71.657 59.3331 72.4245 56.4963C73.1709 53.732 71.6061 50.8825 68.9091 50.0263C70.2067 49.3704 71.2329 48.1863 71.6443 46.6657C71.9878 45.3921 71.8436 44.1058 71.322 42.9984C73.5483 42.8876 75.5541 41.3585 76.169 39.0755C76.9365 36.2387 75.27 33.3168 72.4457 32.5459C69.6215 31.7749 66.7125 33.4489 65.945 36.2856C65.6015 37.5591 65.7457 38.8455 66.2672 39.9529C64.0367 40.0637 62.0352 41.5928 61.4203 43.8715C61.2931 44.3401 61.2337 44.8129 61.2337 45.2771C60.6188 43.6756 59.283 42.3808 57.5105 41.8952C56.2595 41.5544 54.9958 41.6694 53.889 42.1422C55.7591 45.5838 53.3844 49.8943 49.6188 50.6056C49.2032 52.7736 47.6342 54.4731 45.7302 55.193ZM53.5668 41.6524C53.6007 41.5459 53.6346 41.4394 53.6643 41.333C54.1265 39.6292 53.7067 37.8956 52.6932 36.6178C51.5101 37.7636 50.0174 38.3088 48.4102 38.6112C50.4457 38.9946 52.2946 39.7655 53.5668 41.6524ZM62.3574 62.4552C61.768 62.1485 61.1065 62.123 60.5213 62.3232C60.8733 62.3743 61.221 62.485 61.556 62.6554C62.7179 63.256 63.3752 64.4486 63.3497 65.6753L63.3709 65.6327C63.9689 64.4741 63.5109 63.0515 62.3574 62.4552ZM49.8266 69.9815C49.4873 70.646 49.4534 71.3871 49.6782 72.043C49.7375 71.6512 49.8563 71.2593 50.0471 70.8845C50.7129 69.5811 52.0402 68.8442 53.4056 68.8698L53.359 68.8442C52.0698 68.1755 50.4881 68.6867 49.8266 69.9815ZM47.736 59.8953C47.3331 60.6875 47.295 61.565 47.5621 62.3444C47.63 61.8759 47.7742 61.4116 48.0031 60.9644C48.7961 59.414 50.3736 58.5366 51.9978 58.5664L51.9384 58.5366C50.4075 57.7486 48.5247 58.3577 47.736 59.8953ZM61.6281 33.4063C60.9623 33.0655 60.2244 33.0314 59.5714 33.2572C59.9658 33.3168 60.3559 33.4361 60.7291 33.632C62.0309 34.305 62.7688 35.6424 62.7433 37.0182L62.7688 36.9714C63.4303 35.668 62.9214 34.0707 61.6281 33.4063ZM68.2391 42.7045C67.6454 42.3978 66.9881 42.3722 66.4029 42.5724C66.7549 42.6235 67.1026 42.7343 67.4376 42.9047C68.5996 43.5052 69.2568 44.6979 69.2314 45.9246L69.2526 45.882C69.8463 44.7192 69.3925 43.2965 68.2391 42.7045ZM72.7638 35.1185C72.1701 34.8119 71.5128 34.7863 70.9276 34.9865C71.2796 35.0376 71.6273 35.1483 71.9623 35.3187C73.1242 35.9193 73.7815 37.1119 73.7561 38.3386L73.7773 38.296C74.3752 37.1332 73.9172 35.7106 72.7638 35.1185ZM69.5325 51.9771C68.943 51.6705 68.2815 51.6449 67.6963 51.8451C68.0483 51.8962 68.396 52.0069 68.731 52.1773C69.8929 52.7779 70.5502 53.9705 70.5248 55.1972L70.546 55.1546C71.1397 53.9961 70.6859 52.5734 69.5325 51.9771ZM57.8412 44.5871C57.2221 44.2677 56.5309 44.2378 55.9203 44.4466C56.2892 44.5019 56.6539 44.6169 57.0016 44.7958C58.2144 45.422 58.9056 46.6742 58.8802 47.9563L58.9056 47.9094C59.5248 46.6998 59.0498 45.209 57.8412 44.5871ZM48.0583 70.3521C47.4137 72.7373 48.8131 75.195 51.1878 75.8424C53.5625 76.4898 56.0093 75.0842 56.6539 72.699C57.2985 70.3137 55.8991 67.8561 53.5244 67.2086C51.1496 66.5612 48.7028 67.9668 48.0583 70.3521ZM55.5301 59.4438C55.9372 59.7547 56.4079 59.9975 56.9295 60.1381C57.379 60.2616 57.8328 60.3042 58.2738 60.2701C57.3239 60.7472 56.5182 61.5053 55.9924 62.4722C56.145 61.4116 55.9669 60.3638 55.5301 59.4438ZM61.2591 30.5354C58.507 29.7858 55.6828 31.1019 54.4234 33.5468C54.3216 34.0494 54.1477 34.5435 53.8933 35.0248C53.2233 38.1086 55.0722 41.218 58.1423 42.0528C61.31 42.9174 64.5753 41.0391 65.4361 37.8573C66.2969 34.6798 64.4268 31.4001 61.2591 30.5354Z" fill="#AD4582"/>
<path fill-rule="evenodd" clip-rule="evenodd" d="M35.1331 30.5525L35.6208 35.9491C33.4284 33.747 31.2318 31.5407 29.0394 29.3386C27.2202 26.8681 30.0232 23.3882 32.9195 24.9216C34.6666 26.0418 34.9168 28.1332 35.1331 30.5525ZM29.6288 36.0812L35.0016 36.571C32.8093 34.3689 30.6127 32.1625 28.4203 29.9604C25.9608 28.1332 22.4962 30.9486 24.0228 33.8578C25.1381 35.6126 27.2202 35.8639 29.6288 36.0812Z" fill="#B36E33"/>
<path fill-rule="evenodd" clip-rule="evenodd" d="M40.1666 46.6657L39.679 41.2691C41.8713 43.4712 44.0679 45.6775 46.2603 47.8796C48.0795 50.3501 45.2765 53.83 42.3802 52.2966C40.6331 51.1764 40.3871 49.085 40.1666 46.6657ZM45.6709 41.137L40.2981 40.6472C42.4904 42.8493 44.6871 45.0557 46.8794 47.2578C49.339 49.085 52.8035 46.2696 51.2769 43.3604C50.1616 41.6098 48.0795 41.3585 45.6709 41.137Z" fill="#B36E33"/>
<path fill-rule="evenodd" clip-rule="evenodd" d="M45.6709 36.0812L40.2981 36.571C42.4904 34.3689 44.6871 32.1625 46.8794 29.9604C49.339 28.1332 52.8035 30.9486 51.2769 33.8578C50.1616 35.6126 48.0795 35.8639 45.6709 36.0812ZM40.1666 30.5525L39.679 35.9491C41.8713 33.747 44.0679 31.5407 46.2603 29.3386C48.0795 26.8681 45.2765 23.3882 42.3802 24.9216C40.6331 26.0418 40.3871 28.1332 40.1666 30.5525Z" fill="#B36E33"/>
<path fill-rule="evenodd" clip-rule="evenodd" d="M29.6288 41.137L35.0016 40.6472C32.8093 42.8493 30.6127 45.0557 28.4203 47.2578C25.9608 49.085 22.4962 46.2696 24.0228 43.3604C25.1381 41.6098 27.2202 41.3585 29.6288 41.137ZM35.1331 46.6657L35.6208 41.2691C33.4284 43.4712 31.2318 45.6775 29.0394 47.8796C27.2202 50.3501 30.0232 53.83 32.9195 52.2966C34.6666 51.1764 34.9168 49.085 35.1331 46.6657Z" fill="#B36E33"/>
<path d="M137.483 11.3768C136.618 12.8122 135.613 14.2306 134.464 15.6319C133.315 17.0332 132.102 18.3664 130.813 19.6272C129.524 20.888 128.196 22.0678 126.823 23.1625C125.449 24.2614 124.1 25.241 122.781 26.1142C121.462 26.9831 120.207 27.7115 119.016 28.2993C117.824 28.8871 116.764 29.3002 115.835 29.5388C115.729 29.4962 115.695 29.7134 115.738 30.1904C115.78 30.6675 115.882 31.2936 116.047 32.0646C116.208 32.8355 116.437 33.7002 116.73 34.6543C117.023 35.6126 117.375 36.5539 117.786 37.491C118.477 39.0755 119.3 40.3235 120.254 41.2222C121.208 42.1252 122.319 42.5767 123.595 42.5767C124.223 42.5767 124.872 42.5043 125.542 42.3637C126.212 42.2232 126.852 42.0145 127.459 41.7461C128.065 41.4735 128.616 41.12 129.112 40.6855C129.609 40.2511 130.011 39.74 130.313 39.1522C130.376 38.9988 130.457 38.8796 130.554 38.7944C130.652 38.7092 130.732 38.6751 130.796 38.6964C130.86 38.7177 130.893 38.7901 130.893 38.9094C130.893 39.0286 130.838 39.199 130.732 39.4162C130.431 40.004 130.011 40.5748 129.481 41.1285C128.951 41.6822 128.349 42.1721 127.679 42.5937C127.009 43.0197 126.305 43.3562 125.572 43.6032C124.838 43.8545 124.121 43.978 123.43 43.978C122.544 43.978 121.704 43.8204 120.915 43.5052C120.127 43.19 119.397 42.7599 118.723 42.2189C118.053 41.6737 117.451 41.0305 116.921 40.2809C116.391 39.5312 115.933 38.7347 115.543 37.8829C115.089 36.8819 114.72 35.8639 114.44 34.8204C114.16 33.7768 113.957 32.8227 113.838 31.9538C113.719 31.0849 113.668 30.3693 113.694 29.8028C113.715 29.2363 113.804 28.9211 113.952 28.8573C114.343 28.8786 115.017 28.6997 115.979 28.3206C116.942 27.9415 118.079 27.3707 119.389 26.6083C120.699 25.8459 122.124 24.9344 123.672 23.8695C125.22 22.8047 126.767 21.5993 128.311 20.2533C129.855 18.9074 131.356 17.4549 132.806 15.9002C134.256 14.3456 135.541 12.7015 136.669 10.9636C136.864 10.6825 137.038 10.5036 137.186 10.4269C137.339 10.3503 137.462 10.346 137.56 10.4099C137.657 10.4738 137.7 10.6016 137.691 10.7847C137.683 10.9594 137.611 11.1596 137.483 11.3768ZM120.865 11.8964C121.471 11.7218 121.95 11.7729 122.311 12.0413C122.667 12.3139 122.815 12.6589 122.747 13.0848C122.684 13.5065 122.349 13.9367 121.742 14.3711C121.136 14.8056 120.186 15.0867 118.888 15.2187C118.066 16.6967 117.332 18.3622 116.683 20.2235C116.035 22.0806 115.356 23.9931 114.656 25.9609C113.952 27.9287 113.168 29.871 112.303 31.7962C111.438 33.7215 110.382 35.4806 109.139 37.0779C107.897 38.6751 106.404 40.0339 104.661 41.1541C102.918 42.2743 100.828 43.0197 98.3811 43.386C97.1471 43.5606 95.9131 43.5904 94.6833 43.4839C93.4493 43.3775 92.2832 43.1219 91.1764 42.7173C90.0738 42.3169 89.0603 41.7887 88.1401 41.137C87.2199 40.4853 86.4736 39.7016 85.9011 38.7901C85.3286 37.8786 84.947 36.8521 84.7646 35.7106C84.5823 34.5691 84.6629 33.3126 85.0064 31.9453C85.159 31.3575 85.4007 30.8336 85.7357 30.3651C86.0707 29.8965 86.4227 29.4962 86.7916 29.1597C87.1606 28.8232 87.521 28.5548 87.8772 28.3589C88.2334 28.163 88.5218 28.0565 88.7381 28.0309C88.9967 27.9883 89.1324 28.0352 89.1451 28.1758C89.1579 28.3163 89.0943 28.4185 88.967 28.4867C88.8144 28.5506 88.5812 28.7082 88.2673 28.9595C87.9535 29.2108 87.6228 29.5388 87.2793 29.9519C86.9316 30.3651 86.6093 30.8592 86.304 31.4342C86.0029 32.0092 85.8078 32.6694 85.7188 33.4063C85.5661 34.5776 85.6382 35.6211 85.9308 36.5369C86.2234 37.4484 86.6644 38.2364 87.2623 38.9009C87.856 39.5653 88.56 40.1063 89.3699 40.5322C90.1798 40.9539 91.0364 41.2776 91.9354 41.4948C92.8344 41.712 93.7292 41.8271 94.6282 41.8356C95.5272 41.8483 96.3541 41.7632 97.1089 41.5928C99.4243 41.0731 101.434 40.2298 103.147 39.067C104.856 37.9042 106.341 36.5965 107.596 35.1398C108.851 33.6831 109.907 32.1583 110.759 30.561C111.616 28.9637 112.354 27.4687 112.981 26.0801C113.087 25.8416 113.257 25.4625 113.486 24.9386C113.715 24.419 113.978 23.8184 114.283 23.1454C114.584 22.4725 114.911 21.7526 115.259 20.9945C115.606 20.232 115.946 19.4909 116.281 18.7625C116.616 18.0342 116.925 17.3655 117.205 16.7564C117.485 16.1473 117.722 15.6575 117.917 15.2912C117.205 15.3763 116.45 15.453 115.661 15.5212C114.873 15.585 114.071 15.6617 113.261 15.7512C112.451 15.8364 111.646 15.9471 110.844 16.0791C110.043 16.2112 109.267 16.3816 108.508 16.5988C106.905 17.0545 105.59 17.702 104.564 18.5368C103.538 19.3716 102.753 20.2874 102.21 21.2756C101.668 22.2637 101.366 23.2477 101.303 24.2273C101.239 25.207 101.375 26.0461 101.71 26.7531C102.045 27.4602 102.558 27.9713 103.249 28.2865C103.94 28.6017 104.797 28.5761 105.815 28.2056C106.358 28.0096 106.82 27.6774 107.21 27.2131C107.6 26.7446 107.91 26.2207 108.134 25.6329C108.363 25.0451 108.503 24.4445 108.554 23.8227C108.609 23.2051 108.592 22.6343 108.508 22.1104C108.465 21.9358 108.525 21.8719 108.686 21.9145C108.847 21.9571 108.983 22.0976 109.093 22.3362C109.309 22.9027 109.385 23.516 109.322 24.1762C109.258 24.8407 109.08 25.4796 108.787 26.1014C108.495 26.7191 108.113 27.2685 107.634 27.7456C107.159 28.2226 106.629 28.5719 106.044 28.7891C104.831 29.2449 103.733 29.3002 102.749 28.951C101.765 28.6017 100.981 28.0267 100.395 27.2217C99.8102 26.4166 99.4709 25.454 99.3734 24.3381C99.2759 23.2178 99.5091 22.0934 100.073 20.9646C100.637 19.8359 101.566 18.7881 102.863 17.817C104.161 16.8501 105.912 16.1175 108.122 15.6149C109.008 15.4189 109.907 15.2613 110.814 15.1421C111.722 15.0228 112.621 14.9291 113.507 14.8652C114.393 14.8013 115.25 14.7417 116.073 14.6863C116.895 14.631 117.663 14.5713 118.375 14.5074C118.439 14.4222 118.553 14.2476 118.715 13.9878C118.876 13.728 119.075 13.4554 119.317 13.1742C119.554 12.8931 119.809 12.629 120.08 12.3905C120.343 12.1477 120.606 11.9859 120.865 11.8964ZM120.898 14.0176C121.246 13.843 121.484 13.6556 121.611 13.4468C121.742 13.2424 121.785 13.072 121.742 12.94C121.7 12.8079 121.585 12.7398 121.403 12.727C121.221 12.7142 120.996 12.8207 120.737 13.0379C120.521 13.2126 120.301 13.4341 120.072 13.7067C119.843 13.9793 119.643 14.2135 119.469 14.4095C120.097 14.32 120.572 14.1922 120.898 14.0176ZM120.835 45.1153C120.508 45.8096 120.203 46.2781 119.91 46.5166C119.618 46.7551 119.202 46.8531 118.659 46.8105C118.443 46.7892 118.223 46.7466 117.994 46.6785C117.765 46.6146 117.536 46.6018 117.294 46.6444C117.425 46.5124 117.671 46.1375 118.04 45.5199C118.409 44.9023 118.829 44.1399 119.304 43.2369C119.779 42.3339 120.288 41.35 120.831 40.2852C121.373 39.2203 121.874 38.1768 122.34 37.1545C122.807 36.1323 123.205 35.1952 123.54 34.3348C123.875 33.4744 124.096 32.7972 124.206 32.2988C124.032 32.58 123.837 32.7588 123.621 32.8355C123.405 32.9122 123.35 32.8313 123.46 32.5927C123.545 32.4181 123.655 32.1796 123.786 31.8772C123.918 31.5747 124.024 31.3234 124.113 31.1275C124.265 30.7782 124.401 30.3779 124.52 29.9221C124.639 29.4663 124.715 29.0319 124.749 28.6187C124.783 28.2056 124.766 27.852 124.702 27.5581C124.639 27.2642 124.507 27.0981 124.312 27.0513C124.55 27.0087 124.779 26.9661 124.995 26.9192C125.169 26.8766 125.347 26.8468 125.529 26.8383C125.712 26.8255 125.839 26.8128 125.902 26.7872C126.14 26.7659 126.335 26.7489 126.488 26.7403C126.64 26.7276 126.759 26.7574 126.844 26.8213C126.929 26.8852 126.988 27.0215 127.022 27.2302C127.056 27.4346 127.069 27.737 127.069 28.1246C127.069 28.4526 127.022 28.836 126.924 29.2832C126.827 29.7304 126.712 30.1904 126.585 30.6675C126.454 31.1445 126.314 31.6131 126.165 32.0688C126.013 32.5246 125.873 32.9292 125.741 33.2742C126.068 32.8611 126.475 32.3798 126.975 31.8218C127.471 31.2681 127.972 30.774 128.468 30.3395C128.858 29.9903 129.337 29.6154 129.914 29.215C130.486 28.8147 131.067 28.4526 131.648 28.1374C132.234 27.8222 132.781 27.5794 133.285 27.4048C133.794 27.2302 134.188 27.1876 134.468 27.2728C133.819 28.4484 133.226 29.5643 132.683 30.6292C132.446 31.0849 132.212 31.5534 131.983 32.0305C131.754 32.5075 131.547 32.9718 131.351 33.4148C131.156 33.862 130.991 34.2794 130.847 34.6713C130.703 35.0632 130.614 35.3997 130.571 35.6808C130.44 36.3538 130.44 36.7925 130.571 37.0012C130.703 37.2099 130.872 37.3121 131.089 37.3121C131.5 37.3121 131.932 37.0821 132.386 36.6264C132.84 36.1706 133.272 35.6339 133.684 35.0121C134.095 34.3944 134.464 33.7683 134.786 33.1379C135.113 32.5075 135.359 32.0177 135.533 31.6727C135.664 31.3916 135.808 31.2851 135.969 31.3618C136.131 31.4384 136.139 31.6386 135.986 31.9666C135.749 32.4649 135.452 33.0655 135.096 33.7598C134.74 34.4541 134.333 35.1228 133.879 35.766C133.425 36.4091 132.929 36.9543 132.386 37.4101C131.843 37.8658 131.262 38.0958 130.635 38.0958C130.355 38.0958 130.062 38.0405 129.757 37.934C129.456 37.8275 129.202 37.623 128.994 37.3292C128.786 37.0353 128.663 36.6434 128.621 36.1536C128.578 35.6637 128.676 35.0419 128.913 34.2794C129.045 33.845 129.261 33.3509 129.562 32.7972C129.863 32.2435 130.245 31.596 130.698 30.8592C130.893 30.5312 131 30.2501 131.025 30.0115C131.046 29.773 130.966 29.6325 130.783 29.5899C130.601 29.5473 130.313 29.6325 129.922 29.8497C129.532 30.0669 129.023 30.4673 128.396 31.0551C128.116 31.3149 127.794 31.6216 127.437 31.9666C127.081 32.3159 126.704 32.7418 126.301 33.2529C125.902 33.7641 125.495 34.3646 125.084 35.0632C124.673 35.7574 124.274 36.5752 123.884 37.508L120.835 45.1153ZM139.752 34.1943C139.667 34.173 139.455 34.1091 139.12 33.9983C138.785 33.8918 138.497 33.7044 138.259 33.4446C138.064 33.2274 137.941 32.9931 137.886 32.7418C137.831 32.4905 137.835 32.2562 137.903 32.039C137.967 31.8218 138.085 31.6471 138.259 31.5194C138.433 31.3873 138.649 31.3234 138.908 31.3234C139.146 31.3234 139.366 31.4214 139.574 31.6173C139.777 31.8133 139.883 32.0305 139.883 32.269C139.883 32.3329 139.862 32.4309 139.82 32.5629C139.777 32.695 139.744 32.7929 139.722 32.8568C139.68 32.9676 139.65 33.0698 139.642 33.1677C139.629 33.2657 139.688 33.3679 139.82 33.4787C139.951 33.5852 140.172 33.6789 140.486 33.7555C140.799 33.8322 141.151 33.8109 141.542 33.6916C141.932 33.5724 142.33 33.3126 142.742 32.9079C143.153 32.5075 143.53 31.8814 143.878 31.0338C143.984 30.7314 144.128 30.6206 144.298 30.7058C144.472 30.791 144.48 30.9997 144.332 31.3234C143.963 32.1285 143.598 32.7461 143.229 33.1805C142.86 33.615 142.483 33.9174 142.093 34.092C141.703 34.2667 141.313 34.3476 140.927 34.3348C140.532 34.3306 140.142 34.2794 139.752 34.1943ZM144.332 33.2827C144.179 33.5852 144.022 33.96 143.861 34.4072C143.7 34.8545 143.585 35.2889 143.522 35.7106C143.458 36.1365 143.471 36.4986 143.569 36.801C143.666 37.1034 143.908 37.2567 144.298 37.2567C144.535 37.2567 144.786 37.1758 145.044 37.014C145.303 36.8521 145.557 36.6349 145.808 36.3623C146.058 36.0897 146.299 35.7787 146.537 35.4337C146.774 35.0845 147.003 34.7267 147.22 34.3561C147.394 34.075 147.555 33.9813 147.707 34.0793C147.86 34.1772 147.847 34.3774 147.673 34.6841C147.046 35.7276 146.41 36.5582 145.757 37.1758C145.108 37.7934 144.425 38.1044 143.713 38.1044C143.454 38.1044 143.2 38.0319 142.949 37.8914C142.699 37.7508 142.47 37.5293 142.25 37.2227C142.076 36.9415 141.936 36.5156 141.83 35.9534C141.724 35.3869 141.766 34.8545 141.961 34.3561C142.22 33.8109 142.449 33.3296 142.644 32.9037C142.839 32.4777 143.034 32.0731 143.229 31.6812C143.424 31.2894 143.628 30.889 143.844 30.4758C144.06 30.0627 144.311 29.5941 144.591 29.0745C145.002 28.2908 145.358 27.7498 145.663 27.4431C145.964 27.1407 146.376 26.9959 146.897 27.0172C147.114 27.0385 147.334 27.0768 147.563 27.1322C147.792 27.1876 148.021 27.1918 148.263 27.1493C148.025 27.2813 147.737 27.5624 147.402 27.9969C147.067 28.4313 146.719 28.9424 146.363 29.5302C146.007 30.118 145.651 30.7399 145.29 31.4044C144.93 32.0688 144.612 32.695 144.332 33.2827ZM134.01 36.8691C133.858 36.5667 133.79 36.2004 133.798 35.7787C133.811 35.3571 133.934 34.8843 134.171 34.3604C134.43 33.8152 134.659 33.3339 134.854 32.9079C135.049 32.482 135.244 32.0773 135.439 31.6855C135.634 31.2936 135.838 30.8932 136.054 30.4801C136.271 30.0669 136.521 29.5984 136.801 29.0787C137.212 28.295 137.568 27.7541 137.873 27.4474C138.175 27.145 138.586 27.0002 139.107 27.0215C139.324 27.0428 139.544 27.0811 139.773 27.1365C140.002 27.1918 140.231 27.1961 140.473 27.1535C140.235 27.2855 139.951 27.5667 139.629 28.0011C139.303 28.4356 138.963 28.9467 138.607 29.5345C138.251 30.1223 137.895 30.7442 137.534 31.4086C137.178 32.0731 136.847 32.695 136.546 33.2827C136.287 33.8024 136.075 34.3007 135.914 34.765C135.753 35.2335 135.656 35.651 135.622 36.0215C135.588 36.3921 135.626 36.6902 135.736 36.916C135.846 37.146 136.029 37.2908 136.287 37.3547C136.44 37.3973 136.678 37.3547 137 37.2227C137.326 37.0906 137.636 36.8436 137.941 36.473C138.289 36.0599 138.59 35.6084 138.849 35.1185C139.107 34.6287 139.281 34.1985 139.366 33.8322C139.54 33.1379 139.582 32.6055 139.498 32.2349C139.413 31.8644 139.065 31.7025 138.459 31.7451C138.416 31.7451 138.412 31.7196 138.442 31.6642C138.476 31.6088 138.527 31.5577 138.603 31.5023C138.679 31.447 138.772 31.4044 138.878 31.3703C138.989 31.3362 139.107 31.3447 139.235 31.3873C139.625 31.5407 139.934 31.8772 140.159 32.3968C140.388 32.9164 140.422 33.4744 140.274 34.058C140.079 34.8843 139.71 35.6467 139.171 36.341C138.628 37.0353 137.979 37.5592 137.225 37.9042C136.597 38.1853 135.969 38.2194 135.342 38.0021C134.714 37.7892 134.269 37.4101 134.01 36.8691ZM156.176 37.9425C155.807 37.9212 155.485 37.819 155.2 37.6316C154.921 37.4484 154.708 37.1758 154.569 36.818C154.429 36.4602 154.357 36.0258 154.357 35.5147C154.357 35.0035 154.463 34.4243 154.683 33.7726C154.836 33.2955 155.018 32.7844 155.234 32.2392C155.451 31.694 155.684 31.1488 155.934 30.5951C156.184 30.0414 156.43 29.4919 156.68 28.951C156.931 28.4058 157.151 27.9074 157.346 27.4517C157.478 27.1918 157.643 27.0129 157.851 26.915C158.054 26.817 158.309 26.7702 158.614 26.7702H160.365C160.128 26.9661 159.92 27.145 159.751 27.3068C159.577 27.4687 159.411 27.6646 159.246 27.8946C159.085 28.1246 158.915 28.4058 158.741 28.7423C158.567 29.0787 158.364 29.4962 158.126 29.9988C157.889 30.4545 157.656 30.9273 157.427 31.4171C157.198 31.907 156.981 32.384 156.778 32.8525C156.574 33.3211 156.392 33.7555 156.244 34.1559C156.091 34.5563 155.993 34.9013 155.951 35.1824C155.798 35.8767 155.807 36.3665 155.968 36.6477C156.129 36.9288 156.328 37.0949 156.57 37.1375C157.003 37.2014 157.431 37.0395 157.851 36.6477C158.275 36.2558 158.678 35.7404 159.068 35.0972C159.458 34.4583 159.831 33.7385 160.187 32.9463C160.544 32.154 160.887 31.3831 161.209 30.6334C161.536 29.8838 161.841 29.215 162.134 28.6273C162.426 28.0395 162.702 27.6263 162.961 27.3878C163.134 27.2131 163.308 27.0854 163.478 26.9959C163.652 26.9107 163.855 26.8511 164.093 26.817C164.33 26.7829 164.606 26.7702 164.92 26.7702C165.234 26.7702 165.628 26.7702 166.103 26.7702C166.188 26.7702 166.2 26.7957 166.137 26.8511C166.073 26.9065 165.976 26.9661 165.844 27.03C165.713 27.0939 165.556 27.1535 165.374 27.2089C165.191 27.2643 165.034 27.2898 164.903 27.2898C164.275 27.2685 163.838 27.392 163.588 27.6646C163.338 27.9372 163.062 28.3206 162.761 28.8232C162.524 29.2363 162.278 29.7517 162.032 30.3736C161.782 30.9912 161.515 31.6429 161.222 32.3286C160.929 33.0144 160.611 33.6959 160.264 34.3817C159.916 35.0674 159.538 35.6765 159.127 36.2089C158.716 36.7414 158.266 37.1716 157.779 37.4953C157.295 37.8147 156.761 37.9638 156.176 37.9425ZM150.951 36.5071C151.384 36.1365 151.778 35.685 152.134 35.1526C152.491 34.6202 152.826 34.0494 153.139 33.4403C153.453 32.8313 153.746 32.2136 154.017 31.5833C154.289 30.9529 154.543 30.3608 154.781 29.8071C155.018 29.2534 155.247 28.7636 155.463 28.3419C155.68 27.9159 155.909 27.5965 156.146 27.3793C156.32 27.2046 156.494 27.0768 156.668 26.9874C156.841 26.9022 157.045 26.8426 157.283 26.8085C157.52 26.7744 157.796 26.7616 158.109 26.7616C158.423 26.7616 158.818 26.7616 159.293 26.7616C159.377 26.7616 159.39 26.7872 159.326 26.8426C159.263 26.8979 159.165 26.9576 159.034 27.0215C158.902 27.0854 158.746 27.145 158.563 27.2004C158.381 27.2557 158.224 27.2813 158.092 27.2813C157.465 27.26 157.02 27.3835 156.761 27.6561C156.502 27.9287 156.231 28.3121 155.951 28.8147C155.603 29.4451 155.23 30.2714 154.831 31.2936C154.433 32.3159 153.975 33.3211 153.47 34.3093C152.961 35.2974 152.389 36.1493 151.749 36.8691C151.108 37.5847 150.37 37.9468 149.527 37.9468C149.009 37.9468 148.526 37.8531 148.08 37.6699C147.635 37.4867 147.275 37.1332 146.995 36.6093C146.605 35.8937 146.49 35.3145 146.656 34.88C146.817 34.4456 147.05 34.1687 147.355 34.0494C147.656 33.9302 147.919 33.9855 148.136 34.2113C148.352 34.4413 148.318 34.8587 148.038 35.4678C147.953 35.6424 147.928 35.8256 147.974 36.0215C148.017 36.2175 148.097 36.3963 148.216 36.5582C148.335 36.7201 148.488 36.8521 148.67 36.9501C148.852 37.048 149.043 37.0949 149.238 37.0949C149.607 37.0736 149.925 37.0225 150.197 36.9501C150.459 36.8734 150.714 36.7243 150.951 36.5071ZM164.19 27.4474C164.322 27.1876 164.487 27.0087 164.695 26.9107C164.899 26.8128 165.153 26.7659 165.458 26.7659H167.21C166.972 26.9618 166.764 27.1407 166.595 27.3026C166.421 27.4644 166.256 27.6604 166.09 27.8904C165.929 28.1204 165.759 28.4015 165.586 28.738C165.412 29.0745 165.208 29.4919 164.971 29.9945C164.733 30.4503 164.5 30.9231 164.271 31.4129C164.042 31.9027 163.826 32.3798 163.622 32.8483C163.419 33.3168 163.236 33.7513 163.088 34.1517C162.935 34.552 162.838 34.897 162.795 35.1782C162.643 35.8724 162.651 36.3665 162.812 36.6604C162.973 36.9543 163.173 37.1119 163.414 37.1332C163.804 37.1332 164.199 36.9586 164.597 36.6093C164.996 36.26 165.382 35.8213 165.751 35.2889C166.12 34.7565 166.472 34.1687 166.807 33.5298C167.142 32.8866 167.451 32.2733 167.731 31.6897C167.863 31.4086 168.007 31.3021 168.168 31.3788C168.329 31.4555 168.338 31.6557 168.185 31.9836C167.926 32.5501 167.621 33.172 167.278 33.8578C166.93 34.5435 166.544 35.1909 166.107 35.7958C165.675 36.4049 165.2 36.916 164.678 37.3292C164.161 37.7423 163.605 37.9468 163.024 37.9468C162.655 37.9468 162.333 37.8531 162.049 37.6699C161.769 37.4867 161.557 37.2141 161.417 36.8564C161.277 36.4986 161.205 36.0599 161.205 35.536C161.205 35.0163 161.311 34.4285 161.532 33.7768C161.684 33.2998 161.867 32.7887 162.083 32.2435C162.299 31.6983 162.532 31.1531 162.783 30.5993C163.033 30.0456 163.279 29.4962 163.529 28.9552C163.775 28.4015 163.995 27.9032 164.19 27.4474ZM176.882 32.0092C176.492 32.8568 176.102 33.6491 175.716 34.3902C175.326 35.1271 174.889 35.7745 174.402 36.3282C173.914 36.8819 173.35 37.3164 172.714 37.6316C172.074 37.9468 171.315 38.1044 170.424 38.1044C169.58 38.1044 168.91 37.951 168.414 37.6486C167.918 37.3462 167.557 36.9458 167.341 36.4602C167.125 35.9704 167.032 35.4124 167.065 34.782C167.099 34.1517 167.218 33.5 167.422 32.827C167.625 32.154 167.897 31.4896 168.232 30.8379C168.567 30.1862 168.931 29.5984 169.317 29.0787C169.924 28.2524 170.606 27.6178 171.361 27.1705C172.12 26.7233 172.888 26.5018 173.664 26.5018C174.486 26.5018 175.084 26.7063 175.466 27.1194C175.843 27.5326 175.992 28.0735 175.903 28.7508C175.86 29.0106 175.759 29.2832 175.593 29.5643C175.432 29.8454 175.241 30.084 175.025 30.2799C174.809 30.4758 174.58 30.5993 174.342 30.6547C174.105 30.7101 173.897 30.6505 173.727 30.4758C173.901 30.2586 174.088 30.003 174.296 29.7091C174.499 29.4152 174.648 29.1171 174.732 28.8147C174.885 28.2482 174.889 27.8435 174.749 27.5922C174.609 27.3409 174.389 27.2174 174.084 27.2174C173.783 27.2174 173.477 27.3026 173.176 27.4772C172.875 27.6519 172.565 27.8691 172.252 28.1289C171.938 28.3887 171.641 28.6869 171.361 29.0276C171.081 29.3641 170.831 29.6964 170.615 30.0201C170.462 30.2373 170.284 30.5312 170.081 30.9018C169.877 31.2723 169.682 31.677 169.495 32.1242C169.313 32.5714 169.156 33.0442 169.025 33.5426C168.893 34.0409 168.83 34.5307 168.83 35.0078C168.83 35.6595 168.974 36.243 169.266 36.7499C169.559 37.261 170.051 37.5166 170.742 37.5166C171.454 37.5166 172.091 37.3377 172.642 36.9799C173.193 36.6221 173.698 36.1663 174.151 35.6126C174.605 35.0589 175.017 34.4456 175.385 33.7726C175.754 33.0996 176.098 32.4351 176.424 31.7834C176.577 31.481 176.725 31.3575 176.878 31.4257C177.031 31.4895 177.031 31.6855 176.882 32.0092ZM178.082 31.6514C178.43 31.2169 178.812 30.7612 179.236 30.2841C179.656 29.8071 180.105 29.3513 180.584 28.9169C181.059 28.4824 181.547 28.0863 182.043 27.7285C182.539 27.3707 183.04 27.0939 183.536 26.8979C184.38 26.5955 185.05 26.4763 185.55 26.5402C186.046 26.604 186.381 26.7915 186.555 27.0939C186.64 27.3537 186.661 27.605 186.619 27.8435C186.576 28.0821 186.483 28.2908 186.343 28.4611C186.203 28.6358 186.025 28.7593 185.809 28.836C185.593 28.9126 185.364 28.9169 185.126 28.853C185.105 28.6358 184.982 28.4569 184.753 28.3163C184.524 28.1758 184.219 28.1161 183.828 28.1374C183.438 28.1587 182.98 28.278 182.45 28.4952C181.92 28.7124 181.365 29.0489 180.779 29.5047C180.283 30.9614 180.071 32.2605 180.148 33.402C180.224 34.5435 180.487 35.4295 180.945 36.0599C181.399 36.6902 181.971 37.0225 182.667 37.0523C183.358 37.0864 184.074 36.7115 184.808 35.9278C185.219 35.4934 185.648 34.88 186.089 34.0878C186.534 33.2955 186.979 32.4181 187.437 31.464C187.569 31.2042 187.696 31.1232 187.827 31.2212C187.959 31.3192 187.967 31.4981 187.861 31.7579C187.212 33.2359 186.602 34.403 186.029 35.2634C185.457 36.1237 184.906 36.7627 184.375 37.1886C183.845 37.6145 183.337 37.8658 182.849 37.9553C182.361 38.0405 181.882 38.066 181.403 38.0192C181.102 37.9979 180.792 37.9255 180.478 37.8062C180.165 37.6869 179.868 37.5038 179.588 37.2525C179.308 37.0012 179.054 36.6945 178.825 36.3239C178.596 35.9534 178.439 35.4891 178.354 34.9226C178.248 34.2283 178.197 33.6533 178.21 33.1933C178.222 32.7375 178.256 32.3585 178.324 32.0518C178.044 32.4224 177.756 32.8142 177.463 33.2274C177.171 33.6405 176.916 34.0622 176.7 34.4967C176.569 34.7565 176.412 35.1058 176.229 35.5402C176.047 35.9747 175.78 36.5923 175.432 37.3973C175.301 37.6358 175.152 37.7764 174.978 37.819C174.805 37.8616 174.546 37.8829 174.198 37.8829C173.961 37.9042 173.761 37.9169 173.596 37.9169C173.435 37.9169 173.265 37.9723 173.091 38.0788C173.872 36.5156 174.609 34.9695 175.313 33.4489C176.017 31.9283 176.768 30.429 177.569 28.951C177.981 28.1672 178.337 27.6263 178.642 27.3196C178.943 27.0172 179.355 26.8724 179.876 26.8937C180.092 26.915 180.313 26.9533 180.542 27.0087C180.771 27.0641 181 27.0683 181.242 27.0257C181.047 27.1322 180.826 27.3409 180.576 27.6433C180.326 27.9458 180.063 28.3121 179.779 28.7337C179.499 29.1597 179.21 29.6197 178.918 30.118C178.617 30.6206 178.341 31.1318 178.082 31.6514Z" fill="#AD4582"/>
<path d="M199.438 32.0092C199.179 32.5757 198.874 33.1975 198.53 33.8833C198.183 34.5691 197.797 35.2165 197.36 35.8213C196.928 36.4304 196.453 36.933 195.931 37.3377C195.414 37.738 194.858 37.9425 194.277 37.9425C193.908 37.9425 193.586 37.8488 193.302 37.6656C193.022 37.4825 192.81 37.2099 192.67 36.8521C192.53 36.4943 192.458 36.0556 192.458 35.5317C192.458 35.012 192.564 34.4242 192.784 33.7726C192.505 34.2709 192.195 34.765 191.86 35.2548C191.525 35.7447 191.169 36.1876 190.787 36.5923C190.41 36.9927 190.015 37.3206 189.604 37.5719C189.193 37.8232 188.794 37.9467 188.404 37.9467C188.23 37.9467 188.044 37.9297 187.836 37.8999C187.632 37.8658 187.429 37.7977 187.234 37.6869C187.039 37.5804 186.86 37.4271 186.699 37.2312C186.538 37.0352 186.424 36.7839 186.36 36.4815C186.296 36.1323 186.284 35.7958 186.326 35.4721C186.369 35.1441 186.449 34.8246 186.568 34.5094C186.687 34.1942 186.826 33.8918 186.988 33.5979C187.149 33.304 187.306 33.0059 187.458 32.7035C187.352 32.7035 187.246 32.6694 187.149 32.6055C187.051 32.5416 187.055 32.401 187.166 32.1796C187.272 32.0049 187.369 31.8218 187.458 31.6258C187.543 31.4299 187.641 31.234 187.751 31.038C188.077 30.4077 188.4 29.7773 188.726 29.1469C189.053 28.5165 189.333 27.95 189.57 27.4517C189.702 27.1918 189.867 27.0129 190.075 26.915C190.278 26.817 190.533 26.7702 190.838 26.7702H192.818C192.623 26.9022 192.449 27.0342 192.301 27.1791C192.148 27.3196 191.991 27.49 191.83 27.6859C191.669 27.8818 191.5 28.1204 191.326 28.4015C191.152 28.6826 190.957 29.0532 190.741 29.5089C190.439 30.0754 190.168 30.6164 189.931 31.1403C189.693 31.596 189.464 32.0646 189.248 32.5416C189.032 33.0187 188.849 33.4105 188.697 33.7172C188.306 34.5648 188.09 35.2719 188.048 35.8341C188.005 36.4006 188.086 36.7967 188.289 37.0225C188.493 37.2525 188.803 37.2823 189.214 37.1204C189.625 36.9586 190.092 36.571 190.609 35.9619C191.063 35.4422 191.512 34.8204 191.958 34.1048C192.403 33.3892 192.827 32.6438 193.238 31.8729C193.65 31.1019 194.044 30.3352 194.421 29.5728C194.799 28.8104 195.142 28.1076 195.443 27.4559C195.575 27.1961 195.74 27.0172 195.948 26.9192C196.151 26.8213 196.406 26.7744 196.711 26.7744H198.463C198.225 26.9703 198.017 27.1492 197.848 27.3111C197.674 27.4729 197.508 27.6731 197.343 27.9031C197.182 28.1332 197.012 28.4143 196.838 28.7508C196.665 29.0873 196.461 29.5132 196.224 30.0115C195.986 30.4673 195.753 30.9401 195.524 31.4342C195.295 31.924 195.079 32.401 194.875 32.8738C194.672 33.3424 194.489 33.7768 194.341 34.1772C194.188 34.5776 194.091 34.9269 194.048 35.208C193.896 35.9023 193.904 36.4049 194.065 36.6988C194.226 36.9927 194.426 37.1502 194.667 37.1715C195.057 37.1715 195.452 36.9969 195.85 36.6519C196.249 36.3026 196.635 35.8639 197.004 35.3315C197.373 34.7991 197.725 34.2113 198.06 33.5724C198.395 32.9335 198.704 32.3159 198.984 31.7323C199.116 31.4512 199.26 31.3447 199.421 31.4214C199.582 31.4853 199.586 31.6855 199.438 32.0092ZM211.023 31.9794C210.764 32.5459 210.459 33.1677 210.116 33.8535C209.768 34.5393 209.382 35.1867 208.945 35.7915C208.513 36.4006 208.038 36.9117 207.516 37.3249C206.999 37.738 206.443 37.9425 205.862 37.9425C205.493 37.9425 205.171 37.8488 204.887 37.6656C204.607 37.4825 204.395 37.2099 204.255 36.8521C204.115 36.4943 204.043 36.0556 204.043 35.5317C204.043 35.012 204.149 34.4242 204.37 33.7726C204.09 34.2709 203.78 34.765 203.445 35.2548C203.11 35.7447 202.754 36.1876 202.372 36.5923C201.995 36.9927 201.601 37.3206 201.189 37.5719C200.778 37.8232 200.379 37.9467 199.989 37.9467C199.815 37.9467 199.629 37.9297 199.421 37.8999C199.217 37.8658 199.014 37.7977 198.819 37.6869C198.624 37.5804 198.446 37.4271 198.284 37.2312C198.123 37.0352 198.009 36.7839 197.945 36.4815C197.882 36.1323 197.869 35.7958 197.911 35.4721C197.954 35.1441 198.034 34.8246 198.153 34.5094C198.272 34.1942 198.412 33.8918 198.573 33.5979C198.734 33.304 198.891 33.0059 199.044 32.7035C198.938 32.7035 198.832 32.6694 198.734 32.6055C198.636 32.5416 198.641 32.401 198.751 32.1796C198.857 32.0049 198.954 31.8218 199.044 31.6258C199.128 31.4299 199.226 31.234 199.336 31.038C199.658 30.4077 199.985 29.7773 200.311 29.1469C200.638 28.5165 200.918 27.95 201.155 27.4517C201.287 27.1918 201.452 27.0129 201.66 26.915C201.864 26.817 202.118 26.7702 202.423 26.7702H204.404C204.209 26.9022 204.035 27.0342 203.886 27.1791C203.734 27.3196 203.577 27.49 203.416 27.6859C203.254 27.8818 203.085 28.1204 202.911 28.4015C202.737 28.6826 202.542 29.0532 202.326 29.5089C202.025 30.0754 201.753 30.6164 201.516 31.1403C201.278 31.596 201.049 32.0646 200.833 32.5416C200.617 33.0187 200.434 33.4105 200.282 33.7172C199.892 34.5648 199.675 35.2719 199.633 35.8341C199.591 36.4006 199.671 36.7967 199.875 37.0225C200.078 37.2525 200.388 37.2823 200.799 37.1204C201.21 36.9586 201.677 36.571 202.194 35.9619C202.648 35.4422 203.098 34.8204 203.543 34.1048C203.988 33.3892 204.412 32.6438 204.823 31.8729C205.235 31.1019 205.629 30.3352 206.007 29.5728C206.384 28.8104 206.727 28.1076 207.029 27.4559C207.16 27.1961 207.325 27.0172 207.533 26.9192C207.737 26.8213 207.991 26.7744 208.296 26.7744H210.048C209.81 26.9703 209.603 27.1492 209.433 27.3111C209.259 27.4729 209.094 27.6689 208.928 27.8989C208.767 28.1289 208.598 28.41 208.424 28.7465C208.25 29.083 208.046 29.5004 207.809 30.003C207.571 30.4588 207.338 30.9316 207.109 31.4214C206.88 31.9112 206.664 32.3883 206.46 32.8568C206.257 33.3253 206.074 33.7598 205.926 34.1602C205.773 34.5605 205.676 34.9056 205.633 35.1867C205.481 35.881 205.489 36.375 205.65 36.6689C205.811 36.9628 206.011 37.1204 206.253 37.1417C206.643 37.1417 207.037 36.9671 207.436 36.6178C207.834 36.2686 208.22 35.8298 208.589 35.2974C208.958 34.765 209.31 34.1772 209.645 33.5383C209.98 32.8951 210.29 32.2818 210.569 31.6982C210.701 31.4171 210.845 31.3106 211.006 31.3873C211.167 31.4512 211.176 31.6514 211.023 31.9794ZM209.823 20.7985C209.976 20.6239 210.141 20.5429 210.328 20.5557C210.51 20.5685 210.582 20.6579 210.54 20.8326C210.15 21.7015 209.56 22.3873 208.771 22.8856C207.983 23.3839 207.067 23.6353 206.028 23.6353C205.748 23.6353 205.451 23.6012 205.137 23.5373C204.823 23.4734 204.527 23.3669 204.247 23.2264C203.967 23.0858 203.721 22.9069 203.517 22.6897C203.31 22.4724 203.187 22.2126 203.144 21.9059C203.038 21.3394 203.047 20.9561 203.178 20.7474C203.31 20.5429 203.458 20.4365 203.632 20.4365C203.717 20.4365 203.784 20.4791 203.827 20.5685C203.869 20.6537 203.92 20.7644 203.971 20.8965C204.026 21.0285 204.086 21.1648 204.149 21.3054C204.213 21.4459 204.31 21.5822 204.442 21.7143C204.79 22.0422 205.129 22.2595 205.464 22.366C205.799 22.4767 206.206 22.5278 206.681 22.5278C207.135 22.5278 207.52 22.4852 207.834 22.3958C208.148 22.3106 208.419 22.1913 208.644 22.038C208.873 21.8847 209.077 21.7058 209.259 21.5013C209.437 21.2926 209.628 21.0583 209.823 20.7985Z" fill="#AD4582"/>
<path d="M82.4662 45.5157H78.8914V46.5805H80.1297V50.35H81.228V46.5805H82.4662V45.5157ZM88.0002 45.5157H86.9018L85.5958 47.6624L84.2897 45.5157H83.1913V50.35H84.2897V47.5389L85.5364 49.5919H85.6594L86.9061 47.5389V50.35H88.0044V45.5157H88.0002Z" fill="#AD4582"/>
<path d="M90.8965 45.7925H102.477V62.0761H100.858V47.3302H92.5206V62.0761H90.9007V45.7925H90.8965ZM119.486 62.0761H117.773L116.268 58.0766H108.58L107.074 62.0761H105.361L111.59 45.7925H113.257L119.486 62.0761ZM112.422 47.8157L109.156 56.5389H115.687L112.422 47.8157ZM122.37 45.7925H128.158C129.609 45.7925 130.821 46.2824 131.792 47.2578C132.764 48.2332 133.251 49.4513 133.251 50.908C133.251 52.3647 132.764 53.5829 131.792 54.5583C130.821 55.5337 129.609 56.0235 128.158 56.0235H123.99V62.0719H122.37V45.7925ZM123.99 54.4944H128.158C129.163 54.4944 129.986 54.1622 130.635 53.4935C131.301 52.8248 131.631 51.9644 131.631 50.9123C131.631 49.873 131.301 49.0211 130.635 48.3524C129.986 47.6709 129.159 47.3302 128.158 47.3302H123.99V54.4944ZM147.716 62.0761H146.003L144.497 58.0766H136.809L135.304 62.0761H133.59L139.82 45.7925H141.486L147.716 62.0761ZM140.655 47.8157L137.39 56.5389H143.92L140.655 47.8157ZM162.18 45.7925V60.5385H163.919V65.1897H162.299V62.0719H150.718V65.1897H149.098V60.5385H150.417C151.481 59.282 152.016 57.344 152.016 54.7244V45.7925H162.18ZM152.338 60.5427H160.56V47.3302H153.636V54.7756C153.636 57.3312 153.203 59.2522 152.338 60.5427ZM180.559 59.9124C178.939 61.5394 176.954 62.353 174.605 62.353C172.26 62.353 170.276 61.5394 168.651 59.9124C167.032 58.2512 166.222 56.2621 166.222 53.9322C166.222 51.5895 167.032 49.6047 168.651 47.9776C170.271 46.3335 172.256 45.5114 174.605 45.5114C176.95 45.5114 178.935 46.3335 180.559 47.9776C182.179 49.6047 182.989 51.5895 182.989 53.9322C182.989 56.2621 182.179 58.2555 180.559 59.9124ZM167.846 53.9365C167.846 55.8574 168.495 57.4803 169.792 58.7964C171.09 60.1125 172.693 60.7727 174.609 60.7727C176.522 60.7727 178.129 60.1125 179.427 58.7964C180.724 57.4803 181.373 55.8574 181.373 53.9365C181.373 52.0283 180.724 50.4182 179.427 49.0978C178.129 47.7646 176.526 47.0959 174.609 47.0959C172.693 47.0959 171.09 47.7646 169.792 49.0978C168.49 50.414 167.846 52.0283 167.846 53.9365ZM189.905 53.7022L197.92 62.0761H195.791L188.196 54.192V62.0761H186.576V45.7925H188.196V53.2379L195.562 45.7925H197.691L189.905 53.7022ZM206.982 62.3572C204.514 62.3572 202.483 61.5437 200.892 59.9166C199.285 58.2725 198.484 56.2791 198.484 53.9365C198.484 51.5938 199.285 49.6004 200.892 47.9563C202.483 46.3292 204.514 45.5157 206.982 45.5157C208.466 45.5157 209.832 45.8777 211.082 46.5976C212.333 47.3174 213.305 48.2928 214 49.5152L212.562 50.3543C212.054 49.3619 211.295 48.5696 210.294 47.9819C209.289 47.3941 208.186 47.0959 206.982 47.0959C204.942 47.0959 203.293 47.7561 202.025 49.0723C200.744 50.4054 200.104 52.0283 200.104 53.9322C200.104 55.8404 200.744 57.459 202.025 58.7921C203.293 60.1083 204.942 60.7685 206.982 60.7685C208.186 60.7685 209.289 60.4746 210.294 59.8825C211.299 59.2947 212.054 58.5025 212.562 57.5101L214 58.3236C213.334 59.5503 212.372 60.5257 211.104 61.2541C209.84 61.9909 208.466 62.3572 206.982 62.3572Z" fill="#AD4582"/>
</g>
<defs>
<clipPath id="clip0_1_3">
<rect width="214" height="76" fill="white"/>
</clipPath>
</defs>
</svg>
